<mxfile host="65bd71144e">
    <diagram id="QqVjsHmw8dNqkyAkQTzg" name="ページ1">
        <mxGraphModel dx="1443" dy="2102" grid="1" gridSize="10" guides="1" tooltips="1" connect="1" arrows="1" fold="1" page="1" pageScale="1" pageWidth="827" pageHeight="1169" math="0" shadow="0">
            <root>
                <mxCell id="0"/>
                <mxCell id="1" parent="0"/>
                <mxCell id="388" value="users" style="shape=table;startSize=30;container=1;collapsible=0;childLayout=tableLayout;fontSize=16;align=center;verticalAlign=middle;fontFamily=Helvetica;fontStyle=1;fillColor=none;" vertex="1" parent="1">
                    <mxGeometry x="240" y="400" width="280" height="310" as="geometry"/>
                </mxCell>
                <mxCell id="389" value="" style="shape=tableRow;horizontal=0;startSize=0;swimlaneHead=0;swimlaneBody=0;strokeColor=inherit;top=0;left=0;bottom=0;right=0;collapsible=0;dropTarget=0;fillColor=none;points=[[0,0.5],[1,0.5]];portConstraint=eastwest;fontSize=16;align=center;verticalAlign=middle;fontFamily=Helvetica;fontColor=default;fontStyle=1;" vertex="1" parent="388">
                    <mxGeometry y="30" width="280" height="40" as="geometry"/>
                </mxCell>
                <mxCell id="390" value="PK" style="shape=partialRectangle;html=1;whiteSpace=wrap;connectable=0;strokeColor=inherit;overflow=hidden;fillColor=none;top=0;left=0;bottom=0;right=0;pointerEvents=1;fontSize=16;align=center;verticalAlign=middle;fontFamily=Helvetica;fontColor=default;fontStyle=1;" vertex="1" parent="389">
                    <mxGeometry width="40" height="40" as="geometry">
                        <mxRectangle width="40" height="40" as="alternateBounds"/>
                    </mxGeometry>
                </mxCell>
                <mxCell id="391" value="id" style="shape=partialRectangle;html=1;whiteSpace=wrap;connectable=0;strokeColor=inherit;overflow=hidden;fillColor=none;top=0;left=0;bottom=0;right=0;pointerEvents=1;fontSize=16;align=center;verticalAlign=middle;fontFamily=Helvetica;fontColor=default;fontStyle=1;" vertex="1" parent="389">
                    <mxGeometry x="40" width="160" height="40" as="geometry">
                        <mxRectangle width="160" height="40" as="alternateBounds"/>
                    </mxGeometry>
                </mxCell>
                <mxCell id="392" value="int" style="shape=partialRectangle;html=1;whiteSpace=wrap;connectable=0;strokeColor=inherit;overflow=hidden;fillColor=none;top=0;left=0;bottom=0;right=0;pointerEvents=1;fontSize=16;align=center;verticalAlign=middle;fontFamily=Helvetica;fontColor=default;fontStyle=1;" vertex="1" parent="389">
                    <mxGeometry x="200" width="80" height="40" as="geometry">
                        <mxRectangle width="80" height="40" as="alternateBounds"/>
                    </mxGeometry>
                </mxCell>
                <mxCell id="393" value="" style="shape=tableRow;horizontal=0;startSize=0;swimlaneHead=0;swimlaneBody=0;strokeColor=inherit;top=0;left=0;bottom=0;right=0;collapsible=0;dropTarget=0;fillColor=none;points=[[0,0.5],[1,0.5]];portConstraint=eastwest;fontSize=16;align=center;verticalAlign=middle;fontFamily=Helvetica;fontColor=default;fontStyle=1;" vertex="1" parent="388">
                    <mxGeometry y="70" width="280" height="40" as="geometry"/>
                </mxCell>
                <mxCell id="394" value="" style="shape=partialRectangle;html=1;whiteSpace=wrap;connectable=0;strokeColor=inherit;overflow=hidden;fillColor=none;top=0;left=0;bottom=0;right=0;pointerEvents=1;fontSize=16;align=center;verticalAlign=middle;fontFamily=Helvetica;fontColor=default;fontStyle=1;" vertex="1" parent="393">
                    <mxGeometry width="40" height="40" as="geometry">
                        <mxRectangle width="40" height="40" as="alternateBounds"/>
                    </mxGeometry>
                </mxCell>
                <mxCell id="395" value="email" style="shape=partialRectangle;html=1;whiteSpace=wrap;connectable=0;strokeColor=inherit;overflow=hidden;fillColor=none;top=0;left=0;bottom=0;right=0;pointerEvents=1;fontSize=16;align=center;verticalAlign=middle;fontFamily=Helvetica;fontColor=default;fontStyle=1;" vertex="1" parent="393">
                    <mxGeometry x="40" width="160" height="40" as="geometry">
                        <mxRectangle width="160" height="40" as="alternateBounds"/>
                    </mxGeometry>
                </mxCell>
                <mxCell id="396" value="string" style="shape=partialRectangle;html=1;whiteSpace=wrap;connectable=0;strokeColor=inherit;overflow=hidden;fillColor=none;top=0;left=0;bottom=0;right=0;pointerEvents=1;fontSize=16;align=center;verticalAlign=middle;fontFamily=Helvetica;fontColor=default;fontStyle=1;" vertex="1" parent="393">
                    <mxGeometry x="200" width="80" height="40" as="geometry">
                        <mxRectangle width="80" height="40" as="alternateBounds"/>
                    </mxGeometry>
                </mxCell>
                <mxCell id="397" value="" style="shape=tableRow;horizontal=0;startSize=0;swimlaneHead=0;swimlaneBody=0;strokeColor=inherit;top=0;left=0;bottom=0;right=0;collapsible=0;dropTarget=0;fillColor=none;points=[[0,0.5],[1,0.5]];portConstraint=eastwest;fontSize=16;align=center;verticalAlign=middle;fontFamily=Helvetica;fontColor=default;fontStyle=1;" vertex="1" parent="388">
                    <mxGeometry y="110" width="280" height="40" as="geometry"/>
                </mxCell>
                <mxCell id="398" value="" style="shape=partialRectangle;html=1;whiteSpace=wrap;connectable=0;strokeColor=inherit;overflow=hidden;fillColor=none;top=0;left=0;bottom=0;right=0;pointerEvents=1;fontSize=16;align=center;verticalAlign=middle;fontFamily=Helvetica;fontColor=default;fontStyle=1;" vertex="1" parent="397">
                    <mxGeometry width="40" height="40" as="geometry">
                        <mxRectangle width="40" height="40" as="alternateBounds"/>
                    </mxGeometry>
                </mxCell>
                <mxCell id="399" value="first_name" style="shape=partialRectangle;html=1;whiteSpace=wrap;connectable=0;strokeColor=inherit;overflow=hidden;fillColor=none;top=0;left=0;bottom=0;right=0;pointerEvents=1;fontSize=16;align=center;verticalAlign=middle;fontFamily=Helvetica;fontColor=default;fontStyle=1;" vertex="1" parent="397">
                    <mxGeometry x="40" width="160" height="40" as="geometry">
                        <mxRectangle width="160" height="40" as="alternateBounds"/>
                    </mxGeometry>
                </mxCell>
                <mxCell id="400" value="string" style="shape=partialRectangle;html=1;whiteSpace=wrap;connectable=0;strokeColor=inherit;overflow=hidden;fillColor=none;top=0;left=0;bottom=0;right=0;pointerEvents=1;fontSize=16;align=center;verticalAlign=middle;fontFamily=Helvetica;fontColor=default;fontStyle=1;" vertex="1" parent="397">
                    <mxGeometry x="200" width="80" height="40" as="geometry">
                        <mxRectangle width="80" height="40" as="alternateBounds"/>
                    </mxGeometry>
                </mxCell>
                <mxCell id="414" value="" style="shape=tableRow;horizontal=0;startSize=0;swimlaneHead=0;swimlaneBody=0;strokeColor=inherit;top=0;left=0;bottom=0;right=0;collapsible=0;dropTarget=0;fillColor=none;points=[[0,0.5],[1,0.5]];portConstraint=eastwest;fontSize=16;align=center;verticalAlign=middle;fontFamily=Helvetica;fontColor=default;fontStyle=1;" vertex="1" parent="388">
                    <mxGeometry y="150" width="280" height="40" as="geometry"/>
                </mxCell>
                <mxCell id="415" value="" style="shape=partialRectangle;html=1;whiteSpace=wrap;connectable=0;strokeColor=inherit;overflow=hidden;fillColor=none;top=0;left=0;bottom=0;right=0;pointerEvents=1;fontSize=16;align=center;verticalAlign=middle;fontFamily=Helvetica;fontColor=default;fontStyle=1;" vertex="1" parent="414">
                    <mxGeometry width="40" height="40" as="geometry">
                        <mxRectangle width="40" height="40" as="alternateBounds"/>
                    </mxGeometry>
                </mxCell>
                <mxCell id="416" value="last_name" style="shape=partialRectangle;html=1;whiteSpace=wrap;connectable=0;strokeColor=inherit;overflow=hidden;fillColor=none;top=0;left=0;bottom=0;right=0;pointerEvents=1;fontSize=16;align=center;verticalAlign=middle;fontFamily=Helvetica;fontColor=default;fontStyle=1;" vertex="1" parent="414">
                    <mxGeometry x="40" width="160" height="40" as="geometry">
                        <mxRectangle width="160" height="40" as="alternateBounds"/>
                    </mxGeometry>
                </mxCell>
                <mxCell id="417" value="string" style="shape=partialRectangle;html=1;whiteSpace=wrap;connectable=0;strokeColor=inherit;overflow=hidden;fillColor=none;top=0;left=0;bottom=0;right=0;pointerEvents=1;fontSize=16;align=center;verticalAlign=middle;fontFamily=Helvetica;fontColor=default;fontStyle=1;" vertex="1" parent="414">
                    <mxGeometry x="200" width="80" height="40" as="geometry">
                        <mxRectangle width="80" height="40" as="alternateBounds"/>
                    </mxGeometry>
                </mxCell>
                <mxCell id="418" value="" style="shape=tableRow;horizontal=0;startSize=0;swimlaneHead=0;swimlaneBody=0;strokeColor=inherit;top=0;left=0;bottom=0;right=0;collapsible=0;dropTarget=0;fillColor=none;points=[[0,0.5],[1,0.5]];portConstraint=eastwest;fontSize=16;align=center;verticalAlign=middle;fontFamily=Helvetica;fontColor=default;fontStyle=1;" vertex="1" parent="388">
                    <mxGeometry y="190" width="280" height="40" as="geometry"/>
                </mxCell>
                <mxCell id="419" value="" style="shape=partialRectangle;html=1;whiteSpace=wrap;connectable=0;strokeColor=inherit;overflow=hidden;fillColor=none;top=0;left=0;bottom=0;right=0;pointerEvents=1;fontSize=16;align=center;verticalAlign=middle;fontFamily=Helvetica;fontColor=default;fontStyle=1;" vertex="1" parent="418">
                    <mxGeometry width="40" height="40" as="geometry">
                        <mxRectangle width="40" height="40" as="alternateBounds"/>
                    </mxGeometry>
                </mxCell>
                <mxCell id="420" value="&lt;font style=&quot;font-size: 14px;&quot;&gt;encrypted_password&lt;/font&gt;" style="shape=partialRectangle;html=1;whiteSpace=wrap;connectable=0;strokeColor=inherit;overflow=hidden;fillColor=none;top=0;left=0;bottom=0;right=0;pointerEvents=1;fontSize=16;align=center;verticalAlign=middle;fontFamily=Helvetica;fontColor=default;fontStyle=1;" vertex="1" parent="418">
                    <mxGeometry x="40" width="160" height="40" as="geometry">
                        <mxRectangle width="160" height="40" as="alternateBounds"/>
                    </mxGeometry>
                </mxCell>
                <mxCell id="421" value="&lt;font style=&quot;font-size: 12px;&quot;&gt;string(hased)&lt;/font&gt;" style="shape=partialRectangle;html=1;whiteSpace=wrap;connectable=0;strokeColor=inherit;overflow=hidden;fillColor=none;top=0;left=0;bottom=0;right=0;pointerEvents=1;fontSize=16;align=center;verticalAlign=middle;fontFamily=Helvetica;fontColor=default;fontStyle=1;" vertex="1" parent="418">
                    <mxGeometry x="200" width="80" height="40" as="geometry">
                        <mxRectangle width="80" height="40" as="alternateBounds"/>
                    </mxGeometry>
                </mxCell>
                <mxCell id="422" value="" style="shape=tableRow;horizontal=0;startSize=0;swimlaneHead=0;swimlaneBody=0;strokeColor=inherit;top=0;left=0;bottom=0;right=0;collapsible=0;dropTarget=0;fillColor=none;points=[[0,0.5],[1,0.5]];portConstraint=eastwest;fontSize=16;align=center;verticalAlign=middle;fontFamily=Helvetica;fontColor=default;fontStyle=1;" vertex="1" parent="388">
                    <mxGeometry y="230" width="280" height="40" as="geometry"/>
                </mxCell>
                <mxCell id="423" value="" style="shape=partialRectangle;html=1;whiteSpace=wrap;connectable=0;strokeColor=inherit;overflow=hidden;fillColor=none;top=0;left=0;bottom=0;right=0;pointerEvents=1;fontSize=16;align=center;verticalAlign=middle;fontFamily=Helvetica;fontColor=default;fontStyle=1;" vertex="1" parent="422">
                    <mxGeometry width="40" height="40" as="geometry">
                        <mxRectangle width="40" height="40" as="alternateBounds"/>
                    </mxGeometry>
                </mxCell>
                <mxCell id="424" value="created_at" style="shape=partialRectangle;html=1;whiteSpace=wrap;connectable=0;strokeColor=inherit;overflow=hidden;fillColor=none;top=0;left=0;bottom=0;right=0;pointerEvents=1;fontSize=16;align=center;verticalAlign=middle;fontFamily=Helvetica;fontColor=default;fontStyle=1;" vertex="1" parent="422">
                    <mxGeometry x="40" width="160" height="40" as="geometry">
                        <mxRectangle width="160" height="40" as="alternateBounds"/>
                    </mxGeometry>
                </mxCell>
                <mxCell id="425" value="datetime" style="shape=partialRectangle;html=1;whiteSpace=wrap;connectable=0;strokeColor=inherit;overflow=hidden;fillColor=none;top=0;left=0;bottom=0;right=0;pointerEvents=1;fontSize=16;align=center;verticalAlign=middle;fontFamily=Helvetica;fontColor=default;fontStyle=1;" vertex="1" parent="422">
                    <mxGeometry x="200" width="80" height="40" as="geometry">
                        <mxRectangle width="80" height="40" as="alternateBounds"/>
                    </mxGeometry>
                </mxCell>
                <mxCell id="426" value="" style="shape=tableRow;horizontal=0;startSize=0;swimlaneHead=0;swimlaneBody=0;strokeColor=inherit;top=0;left=0;bottom=0;right=0;collapsible=0;dropTarget=0;fillColor=none;points=[[0,0.5],[1,0.5]];portConstraint=eastwest;fontSize=16;align=center;verticalAlign=middle;fontFamily=Helvetica;fontColor=default;fontStyle=1;" vertex="1" parent="388">
                    <mxGeometry y="270" width="280" height="40" as="geometry"/>
                </mxCell>
                <mxCell id="427" value="" style="shape=partialRectangle;html=1;whiteSpace=wrap;connectable=0;strokeColor=inherit;overflow=hidden;fillColor=none;top=0;left=0;bottom=0;right=0;pointerEvents=1;fontSize=16;align=center;verticalAlign=middle;fontFamily=Helvetica;fontColor=default;fontStyle=1;" vertex="1" parent="426">
                    <mxGeometry width="40" height="40" as="geometry">
                        <mxRectangle width="40" height="40" as="alternateBounds"/>
                    </mxGeometry>
                </mxCell>
                <mxCell id="428" value="updated_at" style="shape=partialRectangle;html=1;whiteSpace=wrap;connectable=0;strokeColor=inherit;overflow=hidden;fillColor=none;top=0;left=0;bottom=0;right=0;pointerEvents=1;fontSize=16;align=center;verticalAlign=middle;fontFamily=Helvetica;fontColor=default;fontStyle=1;" vertex="1" parent="426">
                    <mxGeometry x="40" width="160" height="40" as="geometry">
                        <mxRectangle width="160" height="40" as="alternateBounds"/>
                    </mxGeometry>
                </mxCell>
                <mxCell id="429" value="datetime" style="shape=partialRectangle;html=1;whiteSpace=wrap;connectable=0;strokeColor=inherit;overflow=hidden;fillColor=none;top=0;left=0;bottom=0;right=0;pointerEvents=1;fontSize=16;align=center;verticalAlign=middle;fontFamily=Helvetica;fontColor=default;fontStyle=1;" vertex="1" parent="426">
                    <mxGeometry x="200" width="80" height="40" as="geometry">
                        <mxRectangle width="80" height="40" as="alternateBounds"/>
                    </mxGeometry>
                </mxCell>
                <mxCell id="430" value="parkings" style="shape=table;startSize=30;container=1;collapsible=0;childLayout=tableLayout;strokeColor=default;fontSize=16;align=center;verticalAlign=middle;fontFamily=Helvetica;fontColor=default;fontStyle=1;fillColor=default;" vertex="1" parent="1">
                    <mxGeometry x="240" y="119.99999999999997" width="280" height="190" as="geometry"/>
                </mxCell>
                <mxCell id="431" value="" style="shape=tableRow;horizontal=0;startSize=0;swimlaneHead=0;swimlaneBody=0;strokeColor=inherit;top=0;left=0;bottom=0;right=0;collapsible=0;dropTarget=0;fillColor=none;points=[[0,0.5],[1,0.5]];portConstraint=eastwest;fontSize=16;align=center;verticalAlign=middle;fontFamily=Helvetica;fontColor=default;fontStyle=1;" vertex="1" parent="430">
                    <mxGeometry y="30" width="280" height="40" as="geometry"/>
                </mxCell>
                <mxCell id="432" value="PK" style="shape=partialRectangle;html=1;whiteSpace=wrap;connectable=0;strokeColor=inherit;overflow=hidden;fillColor=none;top=0;left=0;bottom=0;right=0;pointerEvents=1;fontSize=16;align=center;verticalAlign=middle;fontFamily=Helvetica;fontColor=default;fontStyle=1;" vertex="1" parent="431">
                    <mxGeometry width="40" height="40" as="geometry">
                        <mxRectangle width="40" height="40" as="alternateBounds"/>
                    </mxGeometry>
                </mxCell>
                <mxCell id="433" value="id" style="shape=partialRectangle;html=1;whiteSpace=wrap;connectable=0;strokeColor=inherit;overflow=hidden;fillColor=none;top=0;left=0;bottom=0;right=0;pointerEvents=1;fontSize=16;align=center;verticalAlign=middle;fontFamily=Helvetica;fontColor=default;fontStyle=1;" vertex="1" parent="431">
                    <mxGeometry x="40" width="160" height="40" as="geometry">
                        <mxRectangle width="160" height="40" as="alternateBounds"/>
                    </mxGeometry>
                </mxCell>
                <mxCell id="434" value="int" style="shape=partialRectangle;html=1;whiteSpace=wrap;connectable=0;strokeColor=inherit;overflow=hidden;fillColor=none;top=0;left=0;bottom=0;right=0;pointerEvents=1;fontSize=16;align=center;verticalAlign=middle;fontFamily=Helvetica;fontColor=default;fontStyle=1;" vertex="1" parent="431">
                    <mxGeometry x="200" width="80" height="40" as="geometry">
                        <mxRectangle width="80" height="40" as="alternateBounds"/>
                    </mxGeometry>
                </mxCell>
                <mxCell id="439" value="" style="shape=tableRow;horizontal=0;startSize=0;swimlaneHead=0;swimlaneBody=0;strokeColor=inherit;top=0;left=0;bottom=0;right=0;collapsible=0;dropTarget=0;fillColor=none;points=[[0,0.5],[1,0.5]];portConstraint=eastwest;fontSize=16;align=center;verticalAlign=middle;fontFamily=Helvetica;fontColor=default;fontStyle=1;" vertex="1" parent="430">
                    <mxGeometry y="70" width="280" height="40" as="geometry"/>
                </mxCell>
                <mxCell id="440" value="" style="shape=partialRectangle;html=1;whiteSpace=wrap;connectable=0;strokeColor=inherit;overflow=hidden;fillColor=none;top=0;left=0;bottom=0;right=0;pointerEvents=1;fontSize=16;align=center;verticalAlign=middle;fontFamily=Helvetica;fontColor=default;fontStyle=1;" vertex="1" parent="439">
                    <mxGeometry width="40" height="40" as="geometry">
                        <mxRectangle width="40" height="40" as="alternateBounds"/>
                    </mxGeometry>
                </mxCell>
                <mxCell id="441" value="lat(緯度)" style="shape=partialRectangle;html=1;whiteSpace=wrap;connectable=0;strokeColor=inherit;overflow=hidden;fillColor=none;top=0;left=0;bottom=0;right=0;pointerEvents=1;fontSize=16;align=center;verticalAlign=middle;fontFamily=Helvetica;fontColor=default;fontStyle=1;" vertex="1" parent="439">
                    <mxGeometry x="40" width="160" height="40" as="geometry">
                        <mxRectangle width="160" height="40" as="alternateBounds"/>
                    </mxGeometry>
                </mxCell>
                <mxCell id="442" value="&lt;font style=&quot;font-size: 12px;&quot;&gt;decimal(10,6)&lt;/font&gt;" style="shape=partialRectangle;html=1;whiteSpace=wrap;connectable=0;strokeColor=inherit;overflow=hidden;fillColor=none;top=0;left=0;bottom=0;right=0;pointerEvents=1;fontSize=16;align=center;verticalAlign=middle;fontFamily=Helvetica;fontColor=default;fontStyle=1;" vertex="1" parent="439">
                    <mxGeometry x="200" width="80" height="40" as="geometry">
                        <mxRectangle width="80" height="40" as="alternateBounds"/>
                    </mxGeometry>
                </mxCell>
                <mxCell id="443" value="" style="shape=tableRow;horizontal=0;startSize=0;swimlaneHead=0;swimlaneBody=0;strokeColor=inherit;top=0;left=0;bottom=0;right=0;collapsible=0;dropTarget=0;fillColor=none;points=[[0,0.5],[1,0.5]];portConstraint=eastwest;fontSize=16;align=center;verticalAlign=middle;fontFamily=Helvetica;fontColor=default;fontStyle=1;" vertex="1" parent="430">
                    <mxGeometry y="110" width="280" height="40" as="geometry"/>
                </mxCell>
                <mxCell id="444" value="" style="shape=partialRectangle;html=1;whiteSpace=wrap;connectable=0;strokeColor=inherit;overflow=hidden;fillColor=none;top=0;left=0;bottom=0;right=0;pointerEvents=1;fontSize=16;align=center;verticalAlign=middle;fontFamily=Helvetica;fontColor=default;fontStyle=1;" vertex="1" parent="443">
                    <mxGeometry width="40" height="40" as="geometry">
                        <mxRectangle width="40" height="40" as="alternateBounds"/>
                    </mxGeometry>
                </mxCell>
                <mxCell id="445" value="lon(経度)" style="shape=partialRectangle;html=1;whiteSpace=wrap;connectable=0;strokeColor=inherit;overflow=hidden;fillColor=none;top=0;left=0;bottom=0;right=0;pointerEvents=1;fontSize=16;align=center;verticalAlign=middle;fontFamily=Helvetica;fontColor=default;fontStyle=1;" vertex="1" parent="443">
                    <mxGeometry x="40" width="160" height="40" as="geometry">
                        <mxRectangle width="160" height="40" as="alternateBounds"/>
                    </mxGeometry>
                </mxCell>
                <mxCell id="446" value="&lt;font style=&quot;font-size: 12px;&quot;&gt;decimal(10,6)&lt;/font&gt;" style="shape=partialRectangle;html=1;whiteSpace=wrap;connectable=0;strokeColor=inherit;overflow=hidden;fillColor=none;top=0;left=0;bottom=0;right=0;pointerEvents=1;fontSize=16;align=center;verticalAlign=middle;fontFamily=Helvetica;fontColor=default;fontStyle=1;" vertex="1" parent="443">
                    <mxGeometry x="200" width="80" height="40" as="geometry">
                        <mxRectangle width="80" height="40" as="alternateBounds"/>
                    </mxGeometry>
                </mxCell>
                <mxCell id="447" value="" style="shape=tableRow;horizontal=0;startSize=0;swimlaneHead=0;swimlaneBody=0;strokeColor=inherit;top=0;left=0;bottom=0;right=0;collapsible=0;dropTarget=0;fillColor=none;points=[[0,0.5],[1,0.5]];portConstraint=eastwest;fontSize=16;align=center;verticalAlign=middle;fontFamily=Helvetica;fontColor=default;fontStyle=1;" vertex="1" parent="430">
                    <mxGeometry y="150" width="280" height="40" as="geometry"/>
                </mxCell>
                <mxCell id="448" value="" style="shape=partialRectangle;html=1;whiteSpace=wrap;connectable=0;strokeColor=inherit;overflow=hidden;fillColor=none;top=0;left=0;bottom=0;right=0;pointerEvents=1;fontSize=16;align=center;verticalAlign=middle;fontFamily=Helvetica;fontColor=default;fontStyle=1;" vertex="1" parent="447">
                    <mxGeometry width="40" height="40" as="geometry">
                        <mxRectangle width="40" height="40" as="alternateBounds"/>
                    </mxGeometry>
                </mxCell>
                <mxCell id="449" value="&lt;font style=&quot;font-size: 16px;&quot;&gt;adress&lt;/font&gt;" style="shape=partialRectangle;html=1;whiteSpace=wrap;connectable=0;strokeColor=inherit;overflow=hidden;fillColor=none;top=0;left=0;bottom=0;right=0;pointerEvents=1;fontSize=16;align=center;verticalAlign=middle;fontFamily=Helvetica;fontColor=default;fontStyle=1;" vertex="1" parent="447">
                    <mxGeometry x="40" width="160" height="40" as="geometry">
                        <mxRectangle width="160" height="40" as="alternateBounds"/>
                    </mxGeometry>
                </mxCell>
                <mxCell id="450" value="&lt;font style=&quot;font-size: 16px;&quot;&gt;string&lt;/font&gt;" style="shape=partialRectangle;html=1;whiteSpace=wrap;connectable=0;strokeColor=inherit;overflow=hidden;fillColor=none;top=0;left=0;bottom=0;right=0;pointerEvents=1;fontSize=16;align=center;verticalAlign=middle;fontFamily=Helvetica;fontColor=default;fontStyle=1;" vertex="1" parent="447">
                    <mxGeometry x="200" width="80" height="40" as="geometry">
                        <mxRectangle width="80" height="40" as="alternateBounds"/>
                    </mxGeometry>
                </mxCell>
                <mxCell id="537" value="routes" style="shape=table;startSize=30;container=1;collapsible=0;childLayout=tableLayout;strokeColor=default;fontSize=16;align=center;verticalAlign=middle;fontFamily=Helvetica;fontColor=default;fontStyle=1;fillColor=default;" vertex="1" parent="1">
                    <mxGeometry x="1560" y="400" width="280" height="390" as="geometry"/>
                </mxCell>
                <mxCell id="538" value="" style="shape=tableRow;horizontal=0;startSize=0;swimlaneHead=0;swimlaneBody=0;strokeColor=inherit;top=0;left=0;bottom=0;right=0;collapsible=0;dropTarget=0;fillColor=none;points=[[0,0.5],[1,0.5]];portConstraint=eastwest;fontSize=16;align=center;verticalAlign=middle;fontFamily=Helvetica;fontColor=default;fontStyle=1;" vertex="1" parent="537">
                    <mxGeometry y="30" width="280" height="40" as="geometry"/>
                </mxCell>
                <mxCell id="539" value="PK" style="shape=partialRectangle;html=1;whiteSpace=wrap;connectable=0;strokeColor=inherit;overflow=hidden;fillColor=none;top=0;left=0;bottom=0;right=0;pointerEvents=1;fontSize=16;align=center;verticalAlign=middle;fontFamily=Helvetica;fontColor=default;fontStyle=1;" vertex="1" parent="538">
                    <mxGeometry width="40" height="40" as="geometry">
                        <mxRectangle width="40" height="40" as="alternateBounds"/>
                    </mxGeometry>
                </mxCell>
                <mxCell id="540" value="id" style="shape=partialRectangle;html=1;whiteSpace=wrap;connectable=0;strokeColor=inherit;overflow=hidden;fillColor=none;top=0;left=0;bottom=0;right=0;pointerEvents=1;fontSize=16;align=center;verticalAlign=middle;fontFamily=Helvetica;fontColor=default;fontStyle=1;" vertex="1" parent="538">
                    <mxGeometry x="40" width="160" height="40" as="geometry">
                        <mxRectangle width="160" height="40" as="alternateBounds"/>
                    </mxGeometry>
                </mxCell>
                <mxCell id="541" value="int" style="shape=partialRectangle;html=1;whiteSpace=wrap;connectable=0;strokeColor=inherit;overflow=hidden;fillColor=none;top=0;left=0;bottom=0;right=0;pointerEvents=1;fontSize=16;align=center;verticalAlign=middle;fontFamily=Helvetica;fontColor=default;fontStyle=1;" vertex="1" parent="538">
                    <mxGeometry x="200" width="80" height="40" as="geometry">
                        <mxRectangle width="80" height="40" as="alternateBounds"/>
                    </mxGeometry>
                </mxCell>
                <mxCell id="542" value="" style="shape=tableRow;horizontal=0;startSize=0;swimlaneHead=0;swimlaneBody=0;strokeColor=inherit;top=0;left=0;bottom=0;right=0;collapsible=0;dropTarget=0;fillColor=none;points=[[0,0.5],[1,0.5]];portConstraint=eastwest;fontSize=16;align=center;verticalAlign=middle;fontFamily=Helvetica;fontColor=default;fontStyle=1;" vertex="1" parent="537">
                    <mxGeometry y="70" width="280" height="40" as="geometry"/>
                </mxCell>
                <mxCell id="543" value="FK1" style="shape=partialRectangle;html=1;whiteSpace=wrap;connectable=0;strokeColor=inherit;overflow=hidden;fillColor=none;top=0;left=0;bottom=0;right=0;pointerEvents=1;fontSize=16;align=center;verticalAlign=middle;fontFamily=Helvetica;fontColor=default;fontStyle=1;" vertex="1" parent="542">
                    <mxGeometry width="40" height="40" as="geometry">
                        <mxRectangle width="40" height="40" as="alternateBounds"/>
                    </mxGeometry>
                </mxCell>
                <mxCell id="544" value="user_id" style="shape=partialRectangle;html=1;whiteSpace=wrap;connectable=0;strokeColor=inherit;overflow=hidden;fillColor=none;top=0;left=0;bottom=0;right=0;pointerEvents=1;fontSize=16;align=center;verticalAlign=middle;fontFamily=Helvetica;fontColor=default;fontStyle=1;" vertex="1" parent="542">
                    <mxGeometry x="40" width="160" height="40" as="geometry">
                        <mxRectangle width="160" height="40" as="alternateBounds"/>
                    </mxGeometry>
                </mxCell>
                <mxCell id="545" value="int" style="shape=partialRectangle;html=1;whiteSpace=wrap;connectable=0;strokeColor=inherit;overflow=hidden;fillColor=none;top=0;left=0;bottom=0;right=0;pointerEvents=1;fontSize=16;align=center;verticalAlign=middle;fontFamily=Helvetica;fontColor=default;fontStyle=1;" vertex="1" parent="542">
                    <mxGeometry x="200" width="80" height="40" as="geometry">
                        <mxRectangle width="80" height="40" as="alternateBounds"/>
                    </mxGeometry>
                </mxCell>
                <mxCell id="558" value="" style="shape=tableRow;horizontal=0;startSize=0;swimlaneHead=0;swimlaneBody=0;strokeColor=inherit;top=0;left=0;bottom=0;right=0;collapsible=0;dropTarget=0;fillColor=none;points=[[0,0.5],[1,0.5]];portConstraint=eastwest;fontSize=16;align=center;verticalAlign=middle;fontFamily=Helvetica;fontColor=default;fontStyle=1;" vertex="1" parent="537">
                    <mxGeometry y="110" width="280" height="40" as="geometry"/>
                </mxCell>
                <mxCell id="559" value="FK2" style="shape=partialRectangle;html=1;whiteSpace=wrap;connectable=0;strokeColor=inherit;overflow=hidden;fillColor=none;top=0;left=0;bottom=0;right=0;pointerEvents=1;fontSize=16;align=center;verticalAlign=middle;fontFamily=Helvetica;fontColor=default;fontStyle=1;" vertex="1" parent="558">
                    <mxGeometry width="40" height="40" as="geometry">
                        <mxRectangle width="40" height="40" as="alternateBounds"/>
                    </mxGeometry>
                </mxCell>
                <mxCell id="560" value="&lt;font style=&quot;font-size: 11px;&quot;&gt;selected_route_segment_id&lt;/font&gt;" style="shape=partialRectangle;html=1;whiteSpace=wrap;connectable=0;strokeColor=inherit;overflow=hidden;fillColor=none;top=0;left=0;bottom=0;right=0;pointerEvents=1;fontSize=16;align=center;verticalAlign=middle;fontFamily=Helvetica;fontColor=default;fontStyle=1;" vertex="1" parent="558">
                    <mxGeometry x="40" width="160" height="40" as="geometry">
                        <mxRectangle width="160" height="40" as="alternateBounds"/>
                    </mxGeometry>
                </mxCell>
                <mxCell id="561" value="int" style="shape=partialRectangle;html=1;whiteSpace=wrap;connectable=0;strokeColor=inherit;overflow=hidden;fillColor=none;top=0;left=0;bottom=0;right=0;pointerEvents=1;fontSize=16;align=center;verticalAlign=middle;fontFamily=Helvetica;fontColor=default;fontStyle=1;" vertex="1" parent="558">
                    <mxGeometry x="200" width="80" height="40" as="geometry">
                        <mxRectangle width="80" height="40" as="alternateBounds"/>
                    </mxGeometry>
                </mxCell>
                <mxCell id="611" value="" style="shape=tableRow;horizontal=0;startSize=0;swimlaneHead=0;swimlaneBody=0;strokeColor=inherit;top=0;left=0;bottom=0;right=0;collapsible=0;dropTarget=0;fillColor=none;points=[[0,0.5],[1,0.5]];portConstraint=eastwest;fontSize=16;align=center;verticalAlign=middle;fontFamily=Helvetica;fontColor=default;fontStyle=1;" vertex="1" parent="537">
                    <mxGeometry y="150" width="280" height="40" as="geometry"/>
                </mxCell>
                <mxCell id="612" value="" style="shape=partialRectangle;html=1;whiteSpace=wrap;connectable=0;strokeColor=inherit;overflow=hidden;fillColor=none;top=0;left=0;bottom=0;right=0;pointerEvents=1;fontSize=16;align=center;verticalAlign=middle;fontFamily=Helvetica;fontColor=default;fontStyle=1;" vertex="1" parent="611">
                    <mxGeometry width="40" height="40" as="geometry">
                        <mxRectangle width="40" height="40" as="alternateBounds"/>
                    </mxGeometry>
                </mxCell>
                <mxCell id="613" value="distance" style="shape=partialRectangle;html=1;whiteSpace=wrap;connectable=0;strokeColor=inherit;overflow=hidden;fillColor=none;top=0;left=0;bottom=0;right=0;pointerEvents=1;fontSize=16;align=center;verticalAlign=middle;fontFamily=Helvetica;fontColor=default;fontStyle=1;" vertex="1" parent="611">
                    <mxGeometry x="40" width="160" height="40" as="geometry">
                        <mxRectangle width="160" height="40" as="alternateBounds"/>
                    </mxGeometry>
                </mxCell>
                <mxCell id="614" value="float" style="shape=partialRectangle;html=1;whiteSpace=wrap;connectable=0;strokeColor=inherit;overflow=hidden;fillColor=none;top=0;left=0;bottom=0;right=0;pointerEvents=1;fontSize=16;align=center;verticalAlign=middle;fontFamily=Helvetica;fontColor=default;fontStyle=1;" vertex="1" parent="611">
                    <mxGeometry x="200" width="80" height="40" as="geometry">
                        <mxRectangle width="80" height="40" as="alternateBounds"/>
                    </mxGeometry>
                </mxCell>
                <mxCell id="656" value="" style="shape=tableRow;horizontal=0;startSize=0;swimlaneHead=0;swimlaneBody=0;strokeColor=inherit;top=0;left=0;bottom=0;right=0;collapsible=0;dropTarget=0;fillColor=none;points=[[0,0.5],[1,0.5]];portConstraint=eastwest;fontSize=16;align=center;verticalAlign=middle;fontFamily=Helvetica;fontColor=default;fontStyle=1;" vertex="1" parent="537">
                    <mxGeometry y="190" width="280" height="40" as="geometry"/>
                </mxCell>
                <mxCell id="657" value="" style="shape=partialRectangle;html=1;whiteSpace=wrap;connectable=0;strokeColor=inherit;overflow=hidden;fillColor=none;top=0;left=0;bottom=0;right=0;pointerEvents=1;fontSize=16;align=center;verticalAlign=middle;fontFamily=Helvetica;fontColor=default;fontStyle=1;" vertex="1" parent="656">
                    <mxGeometry width="40" height="40" as="geometry">
                        <mxRectangle width="40" height="40" as="alternateBounds"/>
                    </mxGeometry>
                </mxCell>
                <mxCell id="658" value="duration" style="shape=partialRectangle;html=1;whiteSpace=wrap;connectable=0;strokeColor=inherit;overflow=hidden;fillColor=none;top=0;left=0;bottom=0;right=0;pointerEvents=1;fontSize=16;align=center;verticalAlign=middle;fontFamily=Helvetica;fontColor=default;fontStyle=1;" vertex="1" parent="656">
                    <mxGeometry x="40" width="160" height="40" as="geometry">
                        <mxRectangle width="160" height="40" as="alternateBounds"/>
                    </mxGeometry>
                </mxCell>
                <mxCell id="659" value="int" style="shape=partialRectangle;html=1;whiteSpace=wrap;connectable=0;strokeColor=inherit;overflow=hidden;fillColor=none;top=0;left=0;bottom=0;right=0;pointerEvents=1;fontSize=16;align=center;verticalAlign=middle;fontFamily=Helvetica;fontColor=default;fontStyle=1;" vertex="1" parent="656">
                    <mxGeometry x="200" width="80" height="40" as="geometry">
                        <mxRectangle width="80" height="40" as="alternateBounds"/>
                    </mxGeometry>
                </mxCell>
                <mxCell id="778" value="" style="shape=tableRow;horizontal=0;startSize=0;swimlaneHead=0;swimlaneBody=0;strokeColor=inherit;top=0;left=0;bottom=0;right=0;collapsible=0;dropTarget=0;fillColor=none;points=[[0,0.5],[1,0.5]];portConstraint=eastwest;fontSize=16;align=center;verticalAlign=middle;fontFamily=Helvetica;fontColor=default;fontStyle=1;" vertex="1" parent="537">
                    <mxGeometry y="230" width="280" height="40" as="geometry"/>
                </mxCell>
                <mxCell id="779" value="" style="shape=partialRectangle;html=1;whiteSpace=wrap;connectable=0;strokeColor=inherit;overflow=hidden;fillColor=none;top=0;left=0;bottom=0;right=0;pointerEvents=1;fontSize=16;align=center;verticalAlign=middle;fontFamily=Helvetica;fontColor=default;fontStyle=1;" vertex="1" parent="778">
                    <mxGeometry width="40" height="40" as="geometry">
                        <mxRectangle width="40" height="40" as="alternateBounds"/>
                    </mxGeometry>
                </mxCell>
                <mxCell id="780" value="raw_route_data&lt;div&gt;&lt;font size=&quot;3&quot;&gt;(APIのレスポンス)&lt;/font&gt;&lt;/div&gt;" style="shape=partialRectangle;html=1;whiteSpace=wrap;connectable=0;strokeColor=inherit;overflow=hidden;fillColor=none;top=0;left=0;bottom=0;right=0;pointerEvents=1;fontSize=16;align=center;verticalAlign=middle;fontFamily=Helvetica;fontColor=default;fontStyle=1;" vertex="1" parent="778">
                    <mxGeometry x="40" width="160" height="40" as="geometry">
                        <mxRectangle width="160" height="40" as="alternateBounds"/>
                    </mxGeometry>
                </mxCell>
                <mxCell id="781" value="&lt;span style=&quot;color: rgb(0, 0, 0);&quot;&gt;json&lt;/span&gt;" style="shape=partialRectangle;html=1;whiteSpace=wrap;connectable=0;strokeColor=inherit;overflow=hidden;fillColor=none;top=0;left=0;bottom=0;right=0;pointerEvents=1;fontSize=16;align=center;verticalAlign=middle;fontFamily=Helvetica;fontColor=default;fontStyle=1;" vertex="1" parent="778">
                    <mxGeometry x="200" width="80" height="40" as="geometry">
                        <mxRectangle width="80" height="40" as="alternateBounds"/>
                    </mxGeometry>
                </mxCell>
                <mxCell id="831" value="" style="shape=tableRow;horizontal=0;startSize=0;swimlaneHead=0;swimlaneBody=0;strokeColor=inherit;top=0;left=0;bottom=0;right=0;collapsible=0;dropTarget=0;fillColor=none;points=[[0,0.5],[1,0.5]];portConstraint=eastwest;fontSize=16;align=center;verticalAlign=middle;fontFamily=Helvetica;fontColor=default;fontStyle=1;" vertex="1" parent="537">
                    <mxGeometry y="270" width="280" height="40" as="geometry"/>
                </mxCell>
                <mxCell id="832" value="" style="shape=partialRectangle;html=1;whiteSpace=wrap;connectable=0;strokeColor=inherit;overflow=hidden;fillColor=none;top=0;left=0;bottom=0;right=0;pointerEvents=1;fontSize=16;align=center;verticalAlign=middle;fontFamily=Helvetica;fontColor=default;fontStyle=1;" vertex="1" parent="831">
                    <mxGeometry width="40" height="40" as="geometry">
                        <mxRectangle width="40" height="40" as="alternateBounds"/>
                    </mxGeometry>
                </mxCell>
                <mxCell id="833" value="&lt;span style=&quot;color: rgb(0, 0, 0);&quot;&gt;route_name&lt;/span&gt;" style="shape=partialRectangle;html=1;whiteSpace=wrap;connectable=0;strokeColor=inherit;overflow=hidden;fillColor=none;top=0;left=0;bottom=0;right=0;pointerEvents=1;fontSize=16;align=center;verticalAlign=middle;fontFamily=Helvetica;fontColor=default;fontStyle=1;" vertex="1" parent="831">
                    <mxGeometry x="40" width="160" height="40" as="geometry">
                        <mxRectangle width="160" height="40" as="alternateBounds"/>
                    </mxGeometry>
                </mxCell>
                <mxCell id="834" value="&lt;font style=&quot;font-size: 16px;&quot;&gt;string&lt;/font&gt;" style="shape=partialRectangle;html=1;whiteSpace=wrap;connectable=0;strokeColor=inherit;overflow=hidden;fillColor=none;top=0;left=0;bottom=0;right=0;pointerEvents=1;fontSize=16;align=center;verticalAlign=middle;fontFamily=Helvetica;fontColor=default;fontStyle=1;" vertex="1" parent="831">
                    <mxGeometry x="200" width="80" height="40" as="geometry">
                        <mxRectangle width="80" height="40" as="alternateBounds"/>
                    </mxGeometry>
                </mxCell>
                <mxCell id="835" value="" style="shape=tableRow;horizontal=0;startSize=0;swimlaneHead=0;swimlaneBody=0;strokeColor=inherit;top=0;left=0;bottom=0;right=0;collapsible=0;dropTarget=0;fillColor=none;points=[[0,0.5],[1,0.5]];portConstraint=eastwest;fontSize=16;align=center;verticalAlign=middle;fontFamily=Helvetica;fontColor=default;fontStyle=1;" vertex="1" parent="537">
                    <mxGeometry y="310" width="280" height="40" as="geometry"/>
                </mxCell>
                <mxCell id="836" value="" style="shape=partialRectangle;html=1;whiteSpace=wrap;connectable=0;strokeColor=inherit;overflow=hidden;fillColor=none;top=0;left=0;bottom=0;right=0;pointerEvents=1;fontSize=16;align=center;verticalAlign=middle;fontFamily=Helvetica;fontColor=default;fontStyle=1;" vertex="1" parent="835">
                    <mxGeometry width="40" height="40" as="geometry">
                        <mxRectangle width="40" height="40" as="alternateBounds"/>
                    </mxGeometry>
                </mxCell>
                <mxCell id="837" value="&lt;span style=&quot;color: rgb(0, 0, 0);&quot;&gt;created_at&lt;/span&gt;" style="shape=partialRectangle;html=1;whiteSpace=wrap;connectable=0;strokeColor=inherit;overflow=hidden;fillColor=none;top=0;left=0;bottom=0;right=0;pointerEvents=1;fontSize=16;align=center;verticalAlign=middle;fontFamily=Helvetica;fontColor=default;fontStyle=1;" vertex="1" parent="835">
                    <mxGeometry x="40" width="160" height="40" as="geometry">
                        <mxRectangle width="160" height="40" as="alternateBounds"/>
                    </mxGeometry>
                </mxCell>
                <mxCell id="838" value="&lt;span style=&quot;color: rgb(0, 0, 0);&quot;&gt;datetime&lt;/span&gt;" style="shape=partialRectangle;html=1;whiteSpace=wrap;connectable=0;strokeColor=inherit;overflow=hidden;fillColor=none;top=0;left=0;bottom=0;right=0;pointerEvents=1;fontSize=16;align=center;verticalAlign=middle;fontFamily=Helvetica;fontColor=default;fontStyle=1;" vertex="1" parent="835">
                    <mxGeometry x="200" width="80" height="40" as="geometry">
                        <mxRectangle width="80" height="40" as="alternateBounds"/>
                    </mxGeometry>
                </mxCell>
                <mxCell id="839" value="" style="shape=tableRow;horizontal=0;startSize=0;swimlaneHead=0;swimlaneBody=0;strokeColor=inherit;top=0;left=0;bottom=0;right=0;collapsible=0;dropTarget=0;fillColor=none;points=[[0,0.5],[1,0.5]];portConstraint=eastwest;fontSize=16;align=center;verticalAlign=middle;fontFamily=Helvetica;fontColor=default;fontStyle=1;" vertex="1" parent="537">
                    <mxGeometry y="350" width="280" height="40" as="geometry"/>
                </mxCell>
                <mxCell id="840" value="" style="shape=partialRectangle;html=1;whiteSpace=wrap;connectable=0;strokeColor=inherit;overflow=hidden;fillColor=none;top=0;left=0;bottom=0;right=0;pointerEvents=1;fontSize=16;align=center;verticalAlign=middle;fontFamily=Helvetica;fontColor=default;fontStyle=1;" vertex="1" parent="839">
                    <mxGeometry width="40" height="40" as="geometry">
                        <mxRectangle width="40" height="40" as="alternateBounds"/>
                    </mxGeometry>
                </mxCell>
                <mxCell id="841" value="&lt;span style=&quot;color: rgb(0, 0, 0);&quot;&gt;updated_at&lt;/span&gt;" style="shape=partialRectangle;html=1;whiteSpace=wrap;connectable=0;strokeColor=inherit;overflow=hidden;fillColor=none;top=0;left=0;bottom=0;right=0;pointerEvents=1;fontSize=16;align=center;verticalAlign=middle;fontFamily=Helvetica;fontColor=default;fontStyle=1;" vertex="1" parent="839">
                    <mxGeometry x="40" width="160" height="40" as="geometry">
                        <mxRectangle width="160" height="40" as="alternateBounds"/>
                    </mxGeometry>
                </mxCell>
                <mxCell id="842" value="&lt;span style=&quot;color: rgb(0, 0, 0);&quot;&gt;datetime&lt;/span&gt;" style="shape=partialRectangle;html=1;whiteSpace=wrap;connectable=0;strokeColor=inherit;overflow=hidden;fillColor=none;top=0;left=0;bottom=0;right=0;pointerEvents=1;fontSize=16;align=center;verticalAlign=middle;fontFamily=Helvetica;fontColor=default;fontStyle=1;" vertex="1" parent="839">
                    <mxGeometry x="200" width="80" height="40" as="geometry">
                        <mxRectangle width="80" height="40" as="alternateBounds"/>
                    </mxGeometry>
                </mxCell>
                <mxCell id="574" value="trip_plans" style="shape=table;startSize=30;container=1;collapsible=0;childLayout=tableLayout;strokeColor=default;fontSize=16;align=center;verticalAlign=middle;fontFamily=Helvetica;fontColor=default;fontStyle=1;fillColor=default;" vertex="1" parent="1">
                    <mxGeometry x="1120" y="40" width="280" height="270" as="geometry"/>
                </mxCell>
                <mxCell id="575" value="" style="shape=tableRow;horizontal=0;startSize=0;swimlaneHead=0;swimlaneBody=0;strokeColor=inherit;top=0;left=0;bottom=0;right=0;collapsible=0;dropTarget=0;fillColor=none;points=[[0,0.5],[1,0.5]];portConstraint=eastwest;fontSize=16;align=center;verticalAlign=middle;fontFamily=Helvetica;fontColor=default;fontStyle=1;" vertex="1" parent="574">
                    <mxGeometry y="30" width="280" height="40" as="geometry"/>
                </mxCell>
                <mxCell id="576" value="PK" style="shape=partialRectangle;html=1;whiteSpace=wrap;connectable=0;strokeColor=inherit;overflow=hidden;fillColor=none;top=0;left=0;bottom=0;right=0;pointerEvents=1;fontSize=16;align=center;verticalAlign=middle;fontFamily=Helvetica;fontColor=default;fontStyle=1;" vertex="1" parent="575">
                    <mxGeometry width="40" height="40" as="geometry">
                        <mxRectangle width="40" height="40" as="alternateBounds"/>
                    </mxGeometry>
                </mxCell>
                <mxCell id="577" value="id" style="shape=partialRectangle;html=1;whiteSpace=wrap;connectable=0;strokeColor=inherit;overflow=hidden;fillColor=none;top=0;left=0;bottom=0;right=0;pointerEvents=1;fontSize=16;align=center;verticalAlign=middle;fontFamily=Helvetica;fontColor=default;fontStyle=1;" vertex="1" parent="575">
                    <mxGeometry x="40" width="160" height="40" as="geometry">
                        <mxRectangle width="160" height="40" as="alternateBounds"/>
                    </mxGeometry>
                </mxCell>
                <mxCell id="578" value="int" style="shape=partialRectangle;html=1;whiteSpace=wrap;connectable=0;strokeColor=inherit;overflow=hidden;fillColor=none;top=0;left=0;bottom=0;right=0;pointerEvents=1;fontSize=16;align=center;verticalAlign=middle;fontFamily=Helvetica;fontColor=default;fontStyle=1;" vertex="1" parent="575">
                    <mxGeometry x="200" width="80" height="40" as="geometry">
                        <mxRectangle width="80" height="40" as="alternateBounds"/>
                    </mxGeometry>
                </mxCell>
                <mxCell id="579" value="" style="shape=tableRow;horizontal=0;startSize=0;swimlaneHead=0;swimlaneBody=0;strokeColor=inherit;top=0;left=0;bottom=0;right=0;collapsible=0;dropTarget=0;fillColor=none;points=[[0,0.5],[1,0.5]];portConstraint=eastwest;fontSize=16;align=center;verticalAlign=middle;fontFamily=Helvetica;fontColor=default;fontStyle=1;" vertex="1" parent="574">
                    <mxGeometry y="70" width="280" height="40" as="geometry"/>
                </mxCell>
                <mxCell id="580" value="FK1" style="shape=partialRectangle;html=1;whiteSpace=wrap;connectable=0;strokeColor=inherit;overflow=hidden;fillColor=none;top=0;left=0;bottom=0;right=0;pointerEvents=1;fontSize=16;align=center;verticalAlign=middle;fontFamily=Helvetica;fontColor=default;fontStyle=1;" vertex="1" parent="579">
                    <mxGeometry width="40" height="40" as="geometry">
                        <mxRectangle width="40" height="40" as="alternateBounds"/>
                    </mxGeometry>
                </mxCell>
                <mxCell id="581" value="user_id" style="shape=partialRectangle;html=1;whiteSpace=wrap;connectable=0;strokeColor=inherit;overflow=hidden;fillColor=none;top=0;left=0;bottom=0;right=0;pointerEvents=1;fontSize=16;align=center;verticalAlign=middle;fontFamily=Helvetica;fontColor=default;fontStyle=1;" vertex="1" parent="579">
                    <mxGeometry x="40" width="160" height="40" as="geometry">
                        <mxRectangle width="160" height="40" as="alternateBounds"/>
                    </mxGeometry>
                </mxCell>
                <mxCell id="582" value="int" style="shape=partialRectangle;html=1;whiteSpace=wrap;connectable=0;strokeColor=inherit;overflow=hidden;fillColor=none;top=0;left=0;bottom=0;right=0;pointerEvents=1;fontSize=16;align=center;verticalAlign=middle;fontFamily=Helvetica;fontColor=default;fontStyle=1;" vertex="1" parent="579">
                    <mxGeometry x="200" width="80" height="40" as="geometry">
                        <mxRectangle width="80" height="40" as="alternateBounds"/>
                    </mxGeometry>
                </mxCell>
                <mxCell id="583" value="" style="shape=tableRow;horizontal=0;startSize=0;swimlaneHead=0;swimlaneBody=0;strokeColor=inherit;top=0;left=0;bottom=0;right=0;collapsible=0;dropTarget=0;fillColor=none;points=[[0,0.5],[1,0.5]];portConstraint=eastwest;fontSize=16;align=center;verticalAlign=middle;fontFamily=Helvetica;fontColor=default;fontStyle=1;" vertex="1" parent="574">
                    <mxGeometry y="110" width="280" height="40" as="geometry"/>
                </mxCell>
                <mxCell id="584" value="FK2" style="shape=partialRectangle;html=1;whiteSpace=wrap;connectable=0;strokeColor=inherit;overflow=hidden;fillColor=none;top=0;left=0;bottom=0;right=0;pointerEvents=1;fontSize=16;align=center;verticalAlign=middle;fontFamily=Helvetica;fontColor=default;fontStyle=1;" vertex="1" parent="583">
                    <mxGeometry width="40" height="40" as="geometry">
                        <mxRectangle width="40" height="40" as="alternateBounds"/>
                    </mxGeometry>
                </mxCell>
                <mxCell id="585" value="route_segment_id" style="shape=partialRectangle;html=1;whiteSpace=wrap;connectable=0;strokeColor=inherit;overflow=hidden;fillColor=none;top=0;left=0;bottom=0;right=0;pointerEvents=1;fontSize=16;align=center;verticalAlign=middle;fontFamily=Helvetica;fontColor=default;fontStyle=1;" vertex="1" parent="583">
                    <mxGeometry x="40" width="160" height="40" as="geometry">
                        <mxRectangle width="160" height="40" as="alternateBounds"/>
                    </mxGeometry>
                </mxCell>
                <mxCell id="586" value="&lt;font style=&quot;font-size: 16px;&quot;&gt;int&lt;/font&gt;" style="shape=partialRectangle;html=1;whiteSpace=wrap;connectable=0;strokeColor=inherit;overflow=hidden;fillColor=none;top=0;left=0;bottom=0;right=0;pointerEvents=1;fontSize=16;align=center;verticalAlign=middle;fontFamily=Helvetica;fontColor=default;fontStyle=1;" vertex="1" parent="583">
                    <mxGeometry x="200" width="80" height="40" as="geometry">
                        <mxRectangle width="80" height="40" as="alternateBounds"/>
                    </mxGeometry>
                </mxCell>
                <mxCell id="587" value="" style="shape=tableRow;horizontal=0;startSize=0;swimlaneHead=0;swimlaneBody=0;strokeColor=inherit;top=0;left=0;bottom=0;right=0;collapsible=0;dropTarget=0;fillColor=none;points=[[0,0.5],[1,0.5]];portConstraint=eastwest;fontSize=16;align=center;verticalAlign=middle;fontFamily=Helvetica;fontColor=default;fontStyle=1;" vertex="1" parent="574">
                    <mxGeometry y="150" width="280" height="40" as="geometry"/>
                </mxCell>
                <mxCell id="588" value="" style="shape=partialRectangle;html=1;whiteSpace=wrap;connectable=0;strokeColor=inherit;overflow=hidden;fillColor=none;top=0;left=0;bottom=0;right=0;pointerEvents=1;fontSize=16;align=center;verticalAlign=middle;fontFamily=Helvetica;fontColor=default;fontStyle=1;" vertex="1" parent="587">
                    <mxGeometry width="40" height="40" as="geometry">
                        <mxRectangle width="40" height="40" as="alternateBounds"/>
                    </mxGeometry>
                </mxCell>
                <mxCell id="589" value="&lt;span style=&quot;color: rgb(0, 0, 0);&quot;&gt;arrival_time&lt;/span&gt;" style="shape=partialRectangle;html=1;whiteSpace=wrap;connectable=0;strokeColor=inherit;overflow=hidden;fillColor=none;top=0;left=0;bottom=0;right=0;pointerEvents=1;fontSize=16;align=center;verticalAlign=middle;fontFamily=Helvetica;fontColor=default;fontStyle=1;" vertex="1" parent="587">
                    <mxGeometry x="40" width="160" height="40" as="geometry">
                        <mxRectangle width="160" height="40" as="alternateBounds"/>
                    </mxGeometry>
                </mxCell>
                <mxCell id="590" value="&lt;font style=&quot;font-size: 16px;&quot;&gt;datetime&lt;/font&gt;" style="shape=partialRectangle;html=1;whiteSpace=wrap;connectable=0;strokeColor=inherit;overflow=hidden;fillColor=none;top=0;left=0;bottom=0;right=0;pointerEvents=1;fontSize=16;align=center;verticalAlign=middle;fontFamily=Helvetica;fontColor=default;fontStyle=1;" vertex="1" parent="587">
                    <mxGeometry x="200" width="80" height="40" as="geometry">
                        <mxRectangle width="80" height="40" as="alternateBounds"/>
                    </mxGeometry>
                </mxCell>
                <mxCell id="591" value="" style="shape=tableRow;horizontal=0;startSize=0;swimlaneHead=0;swimlaneBody=0;strokeColor=inherit;top=0;left=0;bottom=0;right=0;collapsible=0;dropTarget=0;fillColor=none;points=[[0,0.5],[1,0.5]];portConstraint=eastwest;fontSize=16;align=center;verticalAlign=middle;fontFamily=Helvetica;fontColor=default;fontStyle=1;" vertex="1" parent="574">
                    <mxGeometry y="190" width="280" height="40" as="geometry"/>
                </mxCell>
                <mxCell id="592" value="" style="shape=partialRectangle;html=1;whiteSpace=wrap;connectable=0;strokeColor=inherit;overflow=hidden;fillColor=none;top=0;left=0;bottom=0;right=0;pointerEvents=1;fontSize=16;align=center;verticalAlign=middle;fontFamily=Helvetica;fontColor=default;fontStyle=1;" vertex="1" parent="591">
                    <mxGeometry width="40" height="40" as="geometry">
                        <mxRectangle width="40" height="40" as="alternateBounds"/>
                    </mxGeometry>
                </mxCell>
                <mxCell id="593" value="&lt;span style=&quot;color: rgb(63, 63, 63); font-size: 12px;&quot;&gt;departure_time(出発日時)&lt;/span&gt;" style="shape=partialRectangle;html=1;whiteSpace=wrap;connectable=0;strokeColor=inherit;overflow=hidden;fillColor=none;top=0;left=0;bottom=0;right=0;pointerEvents=1;fontSize=16;align=center;verticalAlign=middle;fontFamily=Helvetica;fontColor=default;fontStyle=1;" vertex="1" parent="591">
                    <mxGeometry x="40" width="160" height="40" as="geometry">
                        <mxRectangle width="160" height="40" as="alternateBounds"/>
                    </mxGeometry>
                </mxCell>
                <mxCell id="594" value="&lt;span style=&quot;color: rgb(63, 63, 63);&quot;&gt;datetime&lt;/span&gt;" style="shape=partialRectangle;html=1;whiteSpace=wrap;connectable=0;strokeColor=inherit;overflow=hidden;fillColor=none;top=0;left=0;bottom=0;right=0;pointerEvents=1;fontSize=16;align=center;verticalAlign=middle;fontFamily=Helvetica;fontColor=default;fontStyle=1;" vertex="1" parent="591">
                    <mxGeometry x="200" width="80" height="40" as="geometry">
                        <mxRectangle width="80" height="40" as="alternateBounds"/>
                    </mxGeometry>
                </mxCell>
                <mxCell id="1170" value="" style="shape=tableRow;horizontal=0;startSize=0;swimlaneHead=0;swimlaneBody=0;strokeColor=inherit;top=0;left=0;bottom=0;right=0;collapsible=0;dropTarget=0;fillColor=none;points=[[0,0.5],[1,0.5]];portConstraint=eastwest;fontSize=16;align=center;verticalAlign=middle;fontFamily=Helvetica;fontColor=default;fontStyle=1;" vertex="1" parent="574">
                    <mxGeometry y="230" width="280" height="40" as="geometry"/>
                </mxCell>
                <mxCell id="1171" value="" style="shape=partialRectangle;html=1;whiteSpace=wrap;connectable=0;strokeColor=inherit;overflow=hidden;fillColor=none;top=0;left=0;bottom=0;right=0;pointerEvents=1;fontSize=16;align=center;verticalAlign=middle;fontFamily=Helvetica;fontColor=default;fontStyle=1;" vertex="1" parent="1170">
                    <mxGeometry width="40" height="40" as="geometry">
                        <mxRectangle width="40" height="40" as="alternateBounds"/>
                    </mxGeometry>
                </mxCell>
                <mxCell id="1172" value="&lt;span style=&quot;color: rgb(0, 0, 0);&quot;&gt;available_length&lt;/span&gt;&lt;div&gt;&lt;span style=&quot;color: rgb(0, 0, 0);&quot;&gt;_of_stay&lt;/span&gt;&lt;/div&gt;" style="shape=partialRectangle;html=1;whiteSpace=wrap;connectable=0;strokeColor=inherit;overflow=hidden;fillColor=none;top=0;left=0;bottom=0;right=0;pointerEvents=1;fontSize=16;align=center;verticalAlign=middle;fontFamily=Helvetica;fontColor=default;fontStyle=1;" vertex="1" parent="1170">
                    <mxGeometry x="40" width="160" height="40" as="geometry">
                        <mxRectangle width="160" height="40" as="alternateBounds"/>
                    </mxGeometry>
                </mxCell>
                <mxCell id="1173" value="&lt;span style=&quot;color: rgb(0, 0, 0);&quot;&gt;int&lt;/span&gt;" style="shape=partialRectangle;html=1;whiteSpace=wrap;connectable=0;strokeColor=inherit;overflow=hidden;fillColor=none;top=0;left=0;bottom=0;right=0;pointerEvents=1;fontSize=16;align=center;verticalAlign=middle;fontFamily=Helvetica;fontColor=default;fontStyle=1;" vertex="1" parent="1170">
                    <mxGeometry x="200" width="80" height="40" as="geometry">
                        <mxRectangle width="80" height="40" as="alternateBounds"/>
                    </mxGeometry>
                </mxCell>
                <mxCell id="660" value="selected_parkings" style="shape=table;startSize=30;container=1;collapsible=0;childLayout=tableLayout;strokeColor=default;fontSize=16;align=center;verticalAlign=middle;fontFamily=Helvetica;fontColor=default;fontStyle=1;fillColor=default;" vertex="1" parent="1">
                    <mxGeometry x="680" y="-40" width="280" height="390" as="geometry"/>
                </mxCell>
                <mxCell id="661" value="" style="shape=tableRow;horizontal=0;startSize=0;swimlaneHead=0;swimlaneBody=0;strokeColor=inherit;top=0;left=0;bottom=0;right=0;collapsible=0;dropTarget=0;fillColor=none;points=[[0,0.5],[1,0.5]];portConstraint=eastwest;fontSize=16;align=center;verticalAlign=middle;fontFamily=Helvetica;fontColor=default;fontStyle=1;" vertex="1" parent="660">
                    <mxGeometry y="30" width="280" height="40" as="geometry"/>
                </mxCell>
                <mxCell id="662" value="PK" style="shape=partialRectangle;html=1;whiteSpace=wrap;connectable=0;strokeColor=inherit;overflow=hidden;fillColor=none;top=0;left=0;bottom=0;right=0;pointerEvents=1;fontSize=16;align=center;verticalAlign=middle;fontFamily=Helvetica;fontColor=default;fontStyle=1;" vertex="1" parent="661">
                    <mxGeometry width="40" height="40" as="geometry">
                        <mxRectangle width="40" height="40" as="alternateBounds"/>
                    </mxGeometry>
                </mxCell>
                <mxCell id="663" value="id" style="shape=partialRectangle;html=1;whiteSpace=wrap;connectable=0;strokeColor=inherit;overflow=hidden;fillColor=none;top=0;left=0;bottom=0;right=0;pointerEvents=1;fontSize=16;align=center;verticalAlign=middle;fontFamily=Helvetica;fontColor=default;fontStyle=1;" vertex="1" parent="661">
                    <mxGeometry x="40" width="160" height="40" as="geometry">
                        <mxRectangle width="160" height="40" as="alternateBounds"/>
                    </mxGeometry>
                </mxCell>
                <mxCell id="664" value="int" style="shape=partialRectangle;html=1;whiteSpace=wrap;connectable=0;strokeColor=inherit;overflow=hidden;fillColor=none;top=0;left=0;bottom=0;right=0;pointerEvents=1;fontSize=16;align=center;verticalAlign=middle;fontFamily=Helvetica;fontColor=default;fontStyle=1;" vertex="1" parent="661">
                    <mxGeometry x="200" width="80" height="40" as="geometry">
                        <mxRectangle width="80" height="40" as="alternateBounds"/>
                    </mxGeometry>
                </mxCell>
                <mxCell id="665" value="" style="shape=tableRow;horizontal=0;startSize=0;swimlaneHead=0;swimlaneBody=0;strokeColor=inherit;top=0;left=0;bottom=0;right=0;collapsible=0;dropTarget=0;fillColor=none;points=[[0,0.5],[1,0.5]];portConstraint=eastwest;fontSize=16;align=center;verticalAlign=middle;fontFamily=Helvetica;fontColor=default;fontStyle=1;" vertex="1" parent="660">
                    <mxGeometry y="70" width="280" height="40" as="geometry"/>
                </mxCell>
                <mxCell id="666" value="FK1" style="shape=partialRectangle;html=1;whiteSpace=wrap;connectable=0;strokeColor=inherit;overflow=hidden;fillColor=none;top=0;left=0;bottom=0;right=0;pointerEvents=1;fontSize=16;align=center;verticalAlign=middle;fontFamily=Helvetica;fontColor=default;fontStyle=1;" vertex="1" parent="665">
                    <mxGeometry width="40" height="40" as="geometry">
                        <mxRectangle width="40" height="40" as="alternateBounds"/>
                    </mxGeometry>
                </mxCell>
                <mxCell id="667" value="user_id" style="shape=partialRectangle;html=1;whiteSpace=wrap;connectable=0;strokeColor=inherit;overflow=hidden;fillColor=none;top=0;left=0;bottom=0;right=0;pointerEvents=1;fontSize=16;align=center;verticalAlign=middle;fontFamily=Helvetica;fontColor=default;fontStyle=1;" vertex="1" parent="665">
                    <mxGeometry x="40" width="160" height="40" as="geometry">
                        <mxRectangle width="160" height="40" as="alternateBounds"/>
                    </mxGeometry>
                </mxCell>
                <mxCell id="668" value="int" style="shape=partialRectangle;html=1;whiteSpace=wrap;connectable=0;strokeColor=inherit;overflow=hidden;fillColor=none;top=0;left=0;bottom=0;right=0;pointerEvents=1;fontSize=16;align=center;verticalAlign=middle;fontFamily=Helvetica;fontColor=default;fontStyle=1;" vertex="1" parent="665">
                    <mxGeometry x="200" width="80" height="40" as="geometry">
                        <mxRectangle width="80" height="40" as="alternateBounds"/>
                    </mxGeometry>
                </mxCell>
                <mxCell id="669" value="" style="shape=tableRow;horizontal=0;startSize=0;swimlaneHead=0;swimlaneBody=0;strokeColor=inherit;top=0;left=0;bottom=0;right=0;collapsible=0;dropTarget=0;fillColor=none;points=[[0,0.5],[1,0.5]];portConstraint=eastwest;fontSize=16;align=center;verticalAlign=middle;fontFamily=Helvetica;fontColor=default;fontStyle=1;" vertex="1" parent="660">
                    <mxGeometry y="110" width="280" height="40" as="geometry"/>
                </mxCell>
                <mxCell id="670" value="FK2" style="shape=partialRectangle;html=1;whiteSpace=wrap;connectable=0;strokeColor=inherit;overflow=hidden;fillColor=none;top=0;left=0;bottom=0;right=0;pointerEvents=1;fontSize=16;align=center;verticalAlign=middle;fontFamily=Helvetica;fontColor=default;fontStyle=1;" vertex="1" parent="669">
                    <mxGeometry width="40" height="40" as="geometry">
                        <mxRectangle width="40" height="40" as="alternateBounds"/>
                    </mxGeometry>
                </mxCell>
                <mxCell id="671" value="parking_id" style="shape=partialRectangle;html=1;whiteSpace=wrap;connectable=0;strokeColor=inherit;overflow=hidden;fillColor=none;top=0;left=0;bottom=0;right=0;pointerEvents=1;fontSize=16;align=center;verticalAlign=middle;fontFamily=Helvetica;fontColor=default;fontStyle=1;" vertex="1" parent="669">
                    <mxGeometry x="40" width="160" height="40" as="geometry">
                        <mxRectangle width="160" height="40" as="alternateBounds"/>
                    </mxGeometry>
                </mxCell>
                <mxCell id="672" value="&lt;font style=&quot;font-size: 16px;&quot;&gt;int&lt;/font&gt;" style="shape=partialRectangle;html=1;whiteSpace=wrap;connectable=0;strokeColor=inherit;overflow=hidden;fillColor=none;top=0;left=0;bottom=0;right=0;pointerEvents=1;fontSize=16;align=center;verticalAlign=middle;fontFamily=Helvetica;fontColor=default;fontStyle=1;" vertex="1" parent="669">
                    <mxGeometry x="200" width="80" height="40" as="geometry">
                        <mxRectangle width="80" height="40" as="alternateBounds"/>
                    </mxGeometry>
                </mxCell>
                <mxCell id="673" value="" style="shape=tableRow;horizontal=0;startSize=0;swimlaneHead=0;swimlaneBody=0;strokeColor=inherit;top=0;left=0;bottom=0;right=0;collapsible=0;dropTarget=0;fillColor=none;points=[[0,0.5],[1,0.5]];portConstraint=eastwest;fontSize=16;align=center;verticalAlign=middle;fontFamily=Helvetica;fontColor=default;fontStyle=1;" vertex="1" parent="660">
                    <mxGeometry y="150" width="280" height="40" as="geometry"/>
                </mxCell>
                <mxCell id="674" value="FK3" style="shape=partialRectangle;html=1;whiteSpace=wrap;connectable=0;strokeColor=inherit;overflow=hidden;fillColor=none;top=0;left=0;bottom=0;right=0;pointerEvents=1;fontSize=16;align=center;verticalAlign=middle;fontFamily=Helvetica;fontColor=default;fontStyle=1;" vertex="1" parent="673">
                    <mxGeometry width="40" height="40" as="geometry">
                        <mxRectangle width="40" height="40" as="alternateBounds"/>
                    </mxGeometry>
                </mxCell>
                <mxCell id="675" value="route_id" style="shape=partialRectangle;html=1;whiteSpace=wrap;connectable=0;strokeColor=inherit;overflow=hidden;fillColor=none;top=0;left=0;bottom=0;right=0;pointerEvents=1;fontSize=16;align=center;verticalAlign=middle;fontFamily=Helvetica;fontColor=default;fontStyle=1;" vertex="1" parent="673">
                    <mxGeometry x="40" width="160" height="40" as="geometry">
                        <mxRectangle width="160" height="40" as="alternateBounds"/>
                    </mxGeometry>
                </mxCell>
                <mxCell id="676" value="&lt;font style=&quot;font-size: 16px;&quot;&gt;int&lt;/font&gt;" style="shape=partialRectangle;html=1;whiteSpace=wrap;connectable=0;strokeColor=inherit;overflow=hidden;fillColor=none;top=0;left=0;bottom=0;right=0;pointerEvents=1;fontSize=16;align=center;verticalAlign=middle;fontFamily=Helvetica;fontColor=default;fontStyle=1;" vertex="1" parent="673">
                    <mxGeometry x="200" width="80" height="40" as="geometry">
                        <mxRectangle width="80" height="40" as="alternateBounds"/>
                    </mxGeometry>
                </mxCell>
                <mxCell id="681" value="" style="shape=tableRow;horizontal=0;startSize=0;swimlaneHead=0;swimlaneBody=0;strokeColor=inherit;top=0;left=0;bottom=0;right=0;collapsible=0;dropTarget=0;fillColor=none;points=[[0,0.5],[1,0.5]];portConstraint=eastwest;fontSize=16;align=center;verticalAlign=middle;fontFamily=Helvetica;fontColor=default;fontStyle=1;" vertex="1" parent="660">
                    <mxGeometry y="190" width="280" height="40" as="geometry"/>
                </mxCell>
                <mxCell id="682" value="" style="shape=partialRectangle;html=1;whiteSpace=wrap;connectable=0;strokeColor=inherit;overflow=hidden;fillColor=none;top=0;left=0;bottom=0;right=0;pointerEvents=1;fontSize=16;align=center;verticalAlign=middle;fontFamily=Helvetica;fontColor=default;fontStyle=1;" vertex="1" parent="681">
                    <mxGeometry width="40" height="40" as="geometry">
                        <mxRectangle width="40" height="40" as="alternateBounds"/>
                    </mxGeometry>
                </mxCell>
                <mxCell id="683" value="datetime" style="shape=partialRectangle;html=1;whiteSpace=wrap;connectable=0;strokeColor=inherit;overflow=hidden;fillColor=none;top=0;left=0;bottom=0;right=0;pointerEvents=1;fontSize=16;align=center;verticalAlign=middle;fontFamily=Helvetica;fontColor=default;fontStyle=1;" vertex="1" parent="681">
                    <mxGeometry x="40" width="160" height="40" as="geometry">
                        <mxRectangle width="160" height="40" as="alternateBounds"/>
                    </mxGeometry>
                </mxCell>
                <mxCell id="684" value="datetime" style="shape=partialRectangle;html=1;whiteSpace=wrap;connectable=0;strokeColor=inherit;overflow=hidden;fillColor=none;top=0;left=0;bottom=0;right=0;pointerEvents=1;fontSize=16;align=center;verticalAlign=middle;fontFamily=Helvetica;fontColor=default;fontStyle=1;" vertex="1" parent="681">
                    <mxGeometry x="200" width="80" height="40" as="geometry">
                        <mxRectangle width="80" height="40" as="alternateBounds"/>
                    </mxGeometry>
                </mxCell>
                <mxCell id="685" value="" style="shape=tableRow;horizontal=0;startSize=0;swimlaneHead=0;swimlaneBody=0;strokeColor=inherit;top=0;left=0;bottom=0;right=0;collapsible=0;dropTarget=0;fillColor=none;points=[[0,0.5],[1,0.5]];portConstraint=eastwest;fontSize=16;align=center;verticalAlign=middle;fontFamily=Helvetica;fontColor=default;fontStyle=1;" vertex="1" parent="660">
                    <mxGeometry y="230" width="280" height="40" as="geometry"/>
                </mxCell>
                <mxCell id="686" value="" style="shape=partialRectangle;html=1;whiteSpace=wrap;connectable=0;strokeColor=inherit;overflow=hidden;fillColor=none;top=0;left=0;bottom=0;right=0;pointerEvents=1;fontSize=16;align=center;verticalAlign=middle;fontFamily=Helvetica;fontColor=default;fontStyle=1;" vertex="1" parent="685">
                    <mxGeometry width="40" height="40" as="geometry">
                        <mxRectangle width="40" height="40" as="alternateBounds"/>
                    </mxGeometry>
                </mxCell>
                <mxCell id="687" value="floor" style="shape=partialRectangle;html=1;whiteSpace=wrap;connectable=0;strokeColor=inherit;overflow=hidden;fillColor=none;top=0;left=0;bottom=0;right=0;pointerEvents=1;fontSize=16;align=center;verticalAlign=middle;fontFamily=Helvetica;fontColor=default;fontStyle=1;" vertex="1" parent="685">
                    <mxGeometry x="40" width="160" height="40" as="geometry">
                        <mxRectangle width="160" height="40" as="alternateBounds"/>
                    </mxGeometry>
                </mxCell>
                <mxCell id="688" value="int" style="shape=partialRectangle;html=1;whiteSpace=wrap;connectable=0;strokeColor=inherit;overflow=hidden;fillColor=none;top=0;left=0;bottom=0;right=0;pointerEvents=1;fontSize=16;align=center;verticalAlign=middle;fontFamily=Helvetica;fontColor=default;fontStyle=1;" vertex="1" parent="685">
                    <mxGeometry x="200" width="80" height="40" as="geometry">
                        <mxRectangle width="80" height="40" as="alternateBounds"/>
                    </mxGeometry>
                </mxCell>
                <mxCell id="1166" value="" style="shape=tableRow;horizontal=0;startSize=0;swimlaneHead=0;swimlaneBody=0;strokeColor=inherit;top=0;left=0;bottom=0;right=0;collapsible=0;dropTarget=0;fillColor=none;points=[[0,0.5],[1,0.5]];portConstraint=eastwest;fontSize=16;align=center;verticalAlign=middle;fontFamily=Helvetica;fontColor=default;fontStyle=1;" vertex="1" parent="660">
                    <mxGeometry y="270" width="280" height="40" as="geometry"/>
                </mxCell>
                <mxCell id="1167" value="" style="shape=partialRectangle;html=1;whiteSpace=wrap;connectable=0;strokeColor=inherit;overflow=hidden;fillColor=none;top=0;left=0;bottom=0;right=0;pointerEvents=1;fontSize=16;align=center;verticalAlign=middle;fontFamily=Helvetica;fontColor=default;fontStyle=1;" vertex="1" parent="1166">
                    <mxGeometry width="40" height="40" as="geometry">
                        <mxRectangle width="40" height="40" as="alternateBounds"/>
                    </mxGeometry>
                </mxCell>
                <mxCell id="1168" value="floor" style="shape=partialRectangle;html=1;whiteSpace=wrap;connectable=0;strokeColor=inherit;overflow=hidden;fillColor=none;top=0;left=0;bottom=0;right=0;pointerEvents=1;fontSize=16;align=center;verticalAlign=middle;fontFamily=Helvetica;fontColor=default;fontStyle=1;" vertex="1" parent="1166">
                    <mxGeometry x="40" width="160" height="40" as="geometry">
                        <mxRectangle width="160" height="40" as="alternateBounds"/>
                    </mxGeometry>
                </mxCell>
                <mxCell id="1169" value="int" style="shape=partialRectangle;html=1;whiteSpace=wrap;connectable=0;strokeColor=inherit;overflow=hidden;fillColor=none;top=0;left=0;bottom=0;right=0;pointerEvents=1;fontSize=16;align=center;verticalAlign=middle;fontFamily=Helvetica;fontColor=default;fontStyle=1;" vertex="1" parent="1166">
                    <mxGeometry x="200" width="80" height="40" as="geometry">
                        <mxRectangle width="80" height="40" as="alternateBounds"/>
                    </mxGeometry>
                </mxCell>
                <mxCell id="689" value="" style="shape=tableRow;horizontal=0;startSize=0;swimlaneHead=0;swimlaneBody=0;strokeColor=inherit;top=0;left=0;bottom=0;right=0;collapsible=0;dropTarget=0;fillColor=none;points=[[0,0.5],[1,0.5]];portConstraint=eastwest;fontSize=16;align=center;verticalAlign=middle;fontFamily=Helvetica;fontColor=default;fontStyle=1;" vertex="1" parent="660">
                    <mxGeometry y="310" width="280" height="40" as="geometry"/>
                </mxCell>
                <mxCell id="690" value="" style="shape=partialRectangle;html=1;whiteSpace=wrap;connectable=0;strokeColor=inherit;overflow=hidden;fillColor=none;top=0;left=0;bottom=0;right=0;pointerEvents=1;fontSize=16;align=center;verticalAlign=middle;fontFamily=Helvetica;fontColor=default;fontStyle=1;" vertex="1" parent="689">
                    <mxGeometry width="40" height="40" as="geometry">
                        <mxRectangle width="40" height="40" as="alternateBounds"/>
                    </mxGeometry>
                </mxCell>
                <mxCell id="691" value="created_at" style="shape=partialRectangle;html=1;whiteSpace=wrap;connectable=0;strokeColor=inherit;overflow=hidden;fillColor=none;top=0;left=0;bottom=0;right=0;pointerEvents=1;fontSize=16;align=center;verticalAlign=middle;fontFamily=Helvetica;fontColor=default;fontStyle=1;" vertex="1" parent="689">
                    <mxGeometry x="40" width="160" height="40" as="geometry">
                        <mxRectangle width="160" height="40" as="alternateBounds"/>
                    </mxGeometry>
                </mxCell>
                <mxCell id="692" value="datetime" style="shape=partialRectangle;html=1;whiteSpace=wrap;connectable=0;strokeColor=inherit;overflow=hidden;fillColor=none;top=0;left=0;bottom=0;right=0;pointerEvents=1;fontSize=16;align=center;verticalAlign=middle;fontFamily=Helvetica;fontColor=default;fontStyle=1;" vertex="1" parent="689">
                    <mxGeometry x="200" width="80" height="40" as="geometry">
                        <mxRectangle width="80" height="40" as="alternateBounds"/>
                    </mxGeometry>
                </mxCell>
                <mxCell id="693" value="" style="shape=tableRow;horizontal=0;startSize=0;swimlaneHead=0;swimlaneBody=0;strokeColor=inherit;top=0;left=0;bottom=0;right=0;collapsible=0;dropTarget=0;fillColor=none;points=[[0,0.5],[1,0.5]];portConstraint=eastwest;fontSize=16;align=center;verticalAlign=middle;fontFamily=Helvetica;fontColor=default;fontStyle=1;" vertex="1" parent="660">
                    <mxGeometry y="350" width="280" height="40" as="geometry"/>
                </mxCell>
                <mxCell id="694" value="" style="shape=partialRectangle;html=1;whiteSpace=wrap;connectable=0;strokeColor=inherit;overflow=hidden;fillColor=none;top=0;left=0;bottom=0;right=0;pointerEvents=1;fontSize=16;align=center;verticalAlign=middle;fontFamily=Helvetica;fontColor=default;fontStyle=1;" vertex="1" parent="693">
                    <mxGeometry width="40" height="40" as="geometry">
                        <mxRectangle width="40" height="40" as="alternateBounds"/>
                    </mxGeometry>
                </mxCell>
                <mxCell id="695" value="updated_at" style="shape=partialRectangle;html=1;whiteSpace=wrap;connectable=0;strokeColor=inherit;overflow=hidden;fillColor=none;top=0;left=0;bottom=0;right=0;pointerEvents=1;fontSize=16;align=center;verticalAlign=middle;fontFamily=Helvetica;fontColor=default;fontStyle=1;" vertex="1" parent="693">
                    <mxGeometry x="40" width="160" height="40" as="geometry">
                        <mxRectangle width="160" height="40" as="alternateBounds"/>
                    </mxGeometry>
                </mxCell>
                <mxCell id="696" value="datetime" style="shape=partialRectangle;html=1;whiteSpace=wrap;connectable=0;strokeColor=inherit;overflow=hidden;fillColor=none;top=0;left=0;bottom=0;right=0;pointerEvents=1;fontSize=16;align=center;verticalAlign=middle;fontFamily=Helvetica;fontColor=default;fontStyle=1;" vertex="1" parent="693">
                    <mxGeometry x="200" width="80" height="40" as="geometry">
                        <mxRectangle width="80" height="40" as="alternateBounds"/>
                    </mxGeometry>
                </mxCell>
                <mxCell id="700" value="notify_time" style="shape=table;startSize=30;container=1;collapsible=0;childLayout=tableLayout;strokeColor=default;fontSize=16;align=center;verticalAlign=middle;fontFamily=Helvetica;fontColor=default;fontStyle=1;fillColor=default;" vertex="1" parent="1">
                    <mxGeometry x="1560" y="80" width="280" height="230" as="geometry"/>
                </mxCell>
                <mxCell id="701" value="" style="shape=tableRow;horizontal=0;startSize=0;swimlaneHead=0;swimlaneBody=0;strokeColor=inherit;top=0;left=0;bottom=0;right=0;collapsible=0;dropTarget=0;fillColor=none;points=[[0,0.5],[1,0.5]];portConstraint=eastwest;fontSize=16;align=center;verticalAlign=middle;fontFamily=Helvetica;fontColor=default;fontStyle=1;" vertex="1" parent="700">
                    <mxGeometry y="30" width="280" height="40" as="geometry"/>
                </mxCell>
                <mxCell id="702" value="PK" style="shape=partialRectangle;html=1;whiteSpace=wrap;connectable=0;strokeColor=inherit;overflow=hidden;fillColor=none;top=0;left=0;bottom=0;right=0;pointerEvents=1;fontSize=16;align=center;verticalAlign=middle;fontFamily=Helvetica;fontColor=default;fontStyle=1;" vertex="1" parent="701">
                    <mxGeometry width="40" height="40" as="geometry">
                        <mxRectangle width="40" height="40" as="alternateBounds"/>
                    </mxGeometry>
                </mxCell>
                <mxCell id="703" value="id" style="shape=partialRectangle;html=1;whiteSpace=wrap;connectable=0;strokeColor=inherit;overflow=hidden;fillColor=none;top=0;left=0;bottom=0;right=0;pointerEvents=1;fontSize=16;align=center;verticalAlign=middle;fontFamily=Helvetica;fontColor=default;fontStyle=1;" vertex="1" parent="701">
                    <mxGeometry x="40" width="160" height="40" as="geometry">
                        <mxRectangle width="160" height="40" as="alternateBounds"/>
                    </mxGeometry>
                </mxCell>
                <mxCell id="704" value="int" style="shape=partialRectangle;html=1;whiteSpace=wrap;connectable=0;strokeColor=inherit;overflow=hidden;fillColor=none;top=0;left=0;bottom=0;right=0;pointerEvents=1;fontSize=16;align=center;verticalAlign=middle;fontFamily=Helvetica;fontColor=default;fontStyle=1;" vertex="1" parent="701">
                    <mxGeometry x="200" width="80" height="40" as="geometry">
                        <mxRectangle width="80" height="40" as="alternateBounds"/>
                    </mxGeometry>
                </mxCell>
                <mxCell id="705" value="" style="shape=tableRow;horizontal=0;startSize=0;swimlaneHead=0;swimlaneBody=0;strokeColor=inherit;top=0;left=0;bottom=0;right=0;collapsible=0;dropTarget=0;fillColor=none;points=[[0,0.5],[1,0.5]];portConstraint=eastwest;fontSize=16;align=center;verticalAlign=middle;fontFamily=Helvetica;fontColor=default;fontStyle=1;" vertex="1" parent="700">
                    <mxGeometry y="70" width="280" height="40" as="geometry"/>
                </mxCell>
                <mxCell id="706" value="FK1" style="shape=partialRectangle;html=1;whiteSpace=wrap;connectable=0;strokeColor=inherit;overflow=hidden;fillColor=none;top=0;left=0;bottom=0;right=0;pointerEvents=1;fontSize=16;align=center;verticalAlign=middle;fontFamily=Helvetica;fontColor=default;fontStyle=1;" vertex="1" parent="705">
                    <mxGeometry width="40" height="40" as="geometry">
                        <mxRectangle width="40" height="40" as="alternateBounds"/>
                    </mxGeometry>
                </mxCell>
                <mxCell id="707" value="user_id" style="shape=partialRectangle;html=1;whiteSpace=wrap;connectable=0;strokeColor=inherit;overflow=hidden;fillColor=none;top=0;left=0;bottom=0;right=0;pointerEvents=1;fontSize=16;align=center;verticalAlign=middle;fontFamily=Helvetica;fontColor=default;fontStyle=1;" vertex="1" parent="705">
                    <mxGeometry x="40" width="160" height="40" as="geometry">
                        <mxRectangle width="160" height="40" as="alternateBounds"/>
                    </mxGeometry>
                </mxCell>
                <mxCell id="708" value="int" style="shape=partialRectangle;html=1;whiteSpace=wrap;connectable=0;strokeColor=inherit;overflow=hidden;fillColor=none;top=0;left=0;bottom=0;right=0;pointerEvents=1;fontSize=16;align=center;verticalAlign=middle;fontFamily=Helvetica;fontColor=default;fontStyle=1;" vertex="1" parent="705">
                    <mxGeometry x="200" width="80" height="40" as="geometry">
                        <mxRectangle width="80" height="40" as="alternateBounds"/>
                    </mxGeometry>
                </mxCell>
                <mxCell id="709" value="" style="shape=tableRow;horizontal=0;startSize=0;swimlaneHead=0;swimlaneBody=0;strokeColor=inherit;top=0;left=0;bottom=0;right=0;collapsible=0;dropTarget=0;fillColor=none;points=[[0,0.5],[1,0.5]];portConstraint=eastwest;fontSize=16;align=center;verticalAlign=middle;fontFamily=Helvetica;fontColor=default;fontStyle=1;" vertex="1" parent="700">
                    <mxGeometry y="110" width="280" height="40" as="geometry"/>
                </mxCell>
                <mxCell id="710" value="FK2" style="shape=partialRectangle;html=1;whiteSpace=wrap;connectable=0;strokeColor=inherit;overflow=hidden;fillColor=none;top=0;left=0;bottom=0;right=0;pointerEvents=1;fontSize=16;align=center;verticalAlign=middle;fontFamily=Helvetica;fontColor=default;fontStyle=1;" vertex="1" parent="709">
                    <mxGeometry width="40" height="40" as="geometry">
                        <mxRectangle width="40" height="40" as="alternateBounds"/>
                    </mxGeometry>
                </mxCell>
                <mxCell id="711" value="&lt;span style=&quot;color: rgb(0, 0, 0);&quot;&gt;trip_plan_id&lt;/span&gt;" style="shape=partialRectangle;html=1;whiteSpace=wrap;connectable=0;strokeColor=inherit;overflow=hidden;fillColor=none;top=0;left=0;bottom=0;right=0;pointerEvents=1;fontSize=16;align=center;verticalAlign=middle;fontFamily=Helvetica;fontColor=default;fontStyle=1;" vertex="1" parent="709">
                    <mxGeometry x="40" width="160" height="40" as="geometry">
                        <mxRectangle width="160" height="40" as="alternateBounds"/>
                    </mxGeometry>
                </mxCell>
                <mxCell id="712" value="&lt;font style=&quot;font-size: 16px;&quot;&gt;int&lt;/font&gt;" style="shape=partialRectangle;html=1;whiteSpace=wrap;connectable=0;strokeColor=inherit;overflow=hidden;fillColor=none;top=0;left=0;bottom=0;right=0;pointerEvents=1;fontSize=16;align=center;verticalAlign=middle;fontFamily=Helvetica;fontColor=default;fontStyle=1;" vertex="1" parent="709">
                    <mxGeometry x="200" width="80" height="40" as="geometry">
                        <mxRectangle width="80" height="40" as="alternateBounds"/>
                    </mxGeometry>
                </mxCell>
                <mxCell id="721" value="" style="shape=tableRow;horizontal=0;startSize=0;swimlaneHead=0;swimlaneBody=0;strokeColor=inherit;top=0;left=0;bottom=0;right=0;collapsible=0;dropTarget=0;fillColor=none;points=[[0,0.5],[1,0.5]];portConstraint=eastwest;fontSize=16;align=center;verticalAlign=middle;fontFamily=Helvetica;fontColor=default;fontStyle=1;" vertex="1" parent="700">
                    <mxGeometry y="150" width="280" height="40" as="geometry"/>
                </mxCell>
                <mxCell id="722" value="" style="shape=partialRectangle;html=1;whiteSpace=wrap;connectable=0;strokeColor=inherit;overflow=hidden;fillColor=none;top=0;left=0;bottom=0;right=0;pointerEvents=1;fontSize=16;align=center;verticalAlign=middle;fontFamily=Helvetica;fontColor=default;fontStyle=1;" vertex="1" parent="721">
                    <mxGeometry width="40" height="40" as="geometry">
                        <mxRectangle width="40" height="40" as="alternateBounds"/>
                    </mxGeometry>
                </mxCell>
                <mxCell id="723" value="&lt;span style=&quot;color: rgb(63, 63, 63);&quot;&gt;notify_at(通知時刻)&lt;/span&gt;" style="shape=partialRectangle;html=1;whiteSpace=wrap;connectable=0;strokeColor=inherit;overflow=hidden;fillColor=none;top=0;left=0;bottom=0;right=0;pointerEvents=1;fontSize=16;align=center;verticalAlign=middle;fontFamily=Helvetica;fontColor=default;fontStyle=1;" vertex="1" parent="721">
                    <mxGeometry x="40" width="160" height="40" as="geometry">
                        <mxRectangle width="160" height="40" as="alternateBounds"/>
                    </mxGeometry>
                </mxCell>
                <mxCell id="724" value="&lt;span style=&quot;color: rgb(63, 63, 63);&quot;&gt;datetime&lt;/span&gt;" style="shape=partialRectangle;html=1;whiteSpace=wrap;connectable=0;strokeColor=inherit;overflow=hidden;fillColor=none;top=0;left=0;bottom=0;right=0;pointerEvents=1;fontSize=16;align=center;verticalAlign=middle;fontFamily=Helvetica;fontColor=default;fontStyle=1;" vertex="1" parent="721">
                    <mxGeometry x="200" width="80" height="40" as="geometry">
                        <mxRectangle width="80" height="40" as="alternateBounds"/>
                    </mxGeometry>
                </mxCell>
                <mxCell id="725" value="" style="shape=tableRow;horizontal=0;startSize=0;swimlaneHead=0;swimlaneBody=0;strokeColor=inherit;top=0;left=0;bottom=0;right=0;collapsible=0;dropTarget=0;fillColor=none;points=[[0,0.5],[1,0.5]];portConstraint=eastwest;fontSize=16;align=center;verticalAlign=middle;fontFamily=Helvetica;fontColor=default;fontStyle=1;" vertex="1" parent="700">
                    <mxGeometry y="190" width="280" height="40" as="geometry"/>
                </mxCell>
                <mxCell id="726" value="" style="shape=partialRectangle;html=1;whiteSpace=wrap;connectable=0;strokeColor=inherit;overflow=hidden;fillColor=none;top=0;left=0;bottom=0;right=0;pointerEvents=1;fontSize=16;align=center;verticalAlign=middle;fontFamily=Helvetica;fontColor=default;fontStyle=1;" vertex="1" parent="725">
                    <mxGeometry width="40" height="40" as="geometry">
                        <mxRectangle width="40" height="40" as="alternateBounds"/>
                    </mxGeometry>
                </mxCell>
                <mxCell id="727" value="&lt;span style=&quot;color: rgb(0, 0, 0);&quot;&gt;notified(通知済み)&lt;/span&gt;" style="shape=partialRectangle;html=1;whiteSpace=wrap;connectable=0;strokeColor=inherit;overflow=hidden;fillColor=none;top=0;left=0;bottom=0;right=0;pointerEvents=1;fontSize=16;align=center;verticalAlign=middle;fontFamily=Helvetica;fontColor=default;fontStyle=1;" vertex="1" parent="725">
                    <mxGeometry x="40" width="160" height="40" as="geometry">
                        <mxRectangle width="160" height="40" as="alternateBounds"/>
                    </mxGeometry>
                </mxCell>
                <mxCell id="728" value="&lt;span style=&quot;color: rgb(0, 0, 0);&quot;&gt;boolean&lt;/span&gt;" style="shape=partialRectangle;html=1;whiteSpace=wrap;connectable=0;strokeColor=inherit;overflow=hidden;fillColor=none;top=0;left=0;bottom=0;right=0;pointerEvents=1;fontSize=16;align=center;verticalAlign=middle;fontFamily=Helvetica;fontColor=default;fontStyle=1;" vertex="1" parent="725">
                    <mxGeometry x="200" width="80" height="40" as="geometry">
                        <mxRectangle width="80" height="40" as="alternateBounds"/>
                    </mxGeometry>
                </mxCell>
                <mxCell id="986" style="edgeStyle=none;html=1;fontFamily=Helvetica;fontSize=12;fontColor=default;fontStyle=1;strokeWidth=3;endArrow=ERone;endFill=0;startArrow=ERone;startFill=0;entryX=1;entryY=0.5;entryDx=0;entryDy=0;exitX=0;exitY=0.5;exitDx=0;exitDy=0;" edge="1" parent="1">
                    <mxGeometry relative="1" as="geometry">
                        <mxPoint x="1120" y="200" as="sourcePoint"/>
                        <mxPoint x="960" y="200" as="targetPoint"/>
                    </mxGeometry>
                </mxCell>
                <mxCell id="859" value="locations" style="shape=table;startSize=30;container=1;collapsible=0;childLayout=tableLayout;strokeColor=default;fontSize=16;align=center;verticalAlign=middle;fontFamily=Helvetica;fontColor=default;fontStyle=1;fillColor=default;" vertex="1" parent="1">
                    <mxGeometry x="680" y="480" width="280" height="230" as="geometry"/>
                </mxCell>
                <mxCell id="860" value="" style="shape=tableRow;horizontal=0;startSize=0;swimlaneHead=0;swimlaneBody=0;strokeColor=inherit;top=0;left=0;bottom=0;right=0;collapsible=0;dropTarget=0;fillColor=none;points=[[0,0.5],[1,0.5]];portConstraint=eastwest;fontSize=16;align=center;verticalAlign=middle;fontFamily=Helvetica;fontColor=default;fontStyle=1;" vertex="1" parent="859">
                    <mxGeometry y="30" width="280" height="40" as="geometry"/>
                </mxCell>
                <mxCell id="861" value="PK" style="shape=partialRectangle;html=1;whiteSpace=wrap;connectable=0;strokeColor=inherit;overflow=hidden;fillColor=none;top=0;left=0;bottom=0;right=0;pointerEvents=1;fontSize=16;align=center;verticalAlign=middle;fontFamily=Helvetica;fontColor=default;fontStyle=1;" vertex="1" parent="860">
                    <mxGeometry width="40" height="40" as="geometry">
                        <mxRectangle width="40" height="40" as="alternateBounds"/>
                    </mxGeometry>
                </mxCell>
                <mxCell id="862" value="id" style="shape=partialRectangle;html=1;whiteSpace=wrap;connectable=0;strokeColor=inherit;overflow=hidden;fillColor=none;top=0;left=0;bottom=0;right=0;pointerEvents=1;fontSize=16;align=center;verticalAlign=middle;fontFamily=Helvetica;fontColor=default;fontStyle=1;" vertex="1" parent="860">
                    <mxGeometry x="40" width="160" height="40" as="geometry">
                        <mxRectangle width="160" height="40" as="alternateBounds"/>
                    </mxGeometry>
                </mxCell>
                <mxCell id="863" value="int" style="shape=partialRectangle;html=1;whiteSpace=wrap;connectable=0;strokeColor=inherit;overflow=hidden;fillColor=none;top=0;left=0;bottom=0;right=0;pointerEvents=1;fontSize=16;align=center;verticalAlign=middle;fontFamily=Helvetica;fontColor=default;fontStyle=1;" vertex="1" parent="860">
                    <mxGeometry x="200" width="80" height="40" as="geometry">
                        <mxRectangle width="80" height="40" as="alternateBounds"/>
                    </mxGeometry>
                </mxCell>
                <mxCell id="864" value="" style="shape=tableRow;horizontal=0;startSize=0;swimlaneHead=0;swimlaneBody=0;strokeColor=inherit;top=0;left=0;bottom=0;right=0;collapsible=0;dropTarget=0;fillColor=none;points=[[0,0.5],[1,0.5]];portConstraint=eastwest;fontSize=16;align=center;verticalAlign=middle;fontFamily=Helvetica;fontColor=default;fontStyle=1;" vertex="1" parent="859">
                    <mxGeometry y="70" width="280" height="40" as="geometry"/>
                </mxCell>
                <mxCell id="865" value="FK1" style="shape=partialRectangle;html=1;whiteSpace=wrap;connectable=0;strokeColor=inherit;overflow=hidden;fillColor=none;top=0;left=0;bottom=0;right=0;pointerEvents=1;fontSize=16;align=center;verticalAlign=middle;fontFamily=Helvetica;fontColor=default;fontStyle=1;" vertex="1" parent="864">
                    <mxGeometry width="40" height="40" as="geometry">
                        <mxRectangle width="40" height="40" as="alternateBounds"/>
                    </mxGeometry>
                </mxCell>
                <mxCell id="866" value="user_id" style="shape=partialRectangle;html=1;whiteSpace=wrap;connectable=0;strokeColor=inherit;overflow=hidden;fillColor=none;top=0;left=0;bottom=0;right=0;pointerEvents=1;fontSize=16;align=center;verticalAlign=middle;fontFamily=Helvetica;fontColor=default;fontStyle=1;" vertex="1" parent="864">
                    <mxGeometry x="40" width="160" height="40" as="geometry">
                        <mxRectangle width="160" height="40" as="alternateBounds"/>
                    </mxGeometry>
                </mxCell>
                <mxCell id="867" value="int" style="shape=partialRectangle;html=1;whiteSpace=wrap;connectable=0;strokeColor=inherit;overflow=hidden;fillColor=none;top=0;left=0;bottom=0;right=0;pointerEvents=1;fontSize=16;align=center;verticalAlign=middle;fontFamily=Helvetica;fontColor=default;fontStyle=1;" vertex="1" parent="864">
                    <mxGeometry x="200" width="80" height="40" as="geometry">
                        <mxRectangle width="80" height="40" as="alternateBounds"/>
                    </mxGeometry>
                </mxCell>
                <mxCell id="908" value="" style="shape=tableRow;horizontal=0;startSize=0;swimlaneHead=0;swimlaneBody=0;strokeColor=inherit;top=0;left=0;bottom=0;right=0;collapsible=0;dropTarget=0;fillColor=none;points=[[0,0.5],[1,0.5]];portConstraint=eastwest;fontSize=16;align=center;verticalAlign=middle;fontFamily=Helvetica;fontColor=default;fontStyle=1;" vertex="1" parent="859">
                    <mxGeometry y="110" width="280" height="40" as="geometry"/>
                </mxCell>
                <mxCell id="909" value="" style="shape=partialRectangle;html=1;whiteSpace=wrap;connectable=0;strokeColor=inherit;overflow=hidden;fillColor=none;top=0;left=0;bottom=0;right=0;pointerEvents=1;fontSize=16;align=center;verticalAlign=middle;fontFamily=Helvetica;fontColor=default;fontStyle=1;" vertex="1" parent="908">
                    <mxGeometry width="40" height="40" as="geometry">
                        <mxRectangle width="40" height="40" as="alternateBounds"/>
                    </mxGeometry>
                </mxCell>
                <mxCell id="910" value="&lt;span style=&quot;color: rgb(0, 0, 0);&quot;&gt;location_lat&lt;/span&gt;" style="shape=partialRectangle;html=1;whiteSpace=wrap;connectable=0;strokeColor=inherit;overflow=hidden;fillColor=none;top=0;left=0;bottom=0;right=0;pointerEvents=1;fontSize=16;align=center;verticalAlign=middle;fontFamily=Helvetica;fontColor=default;fontStyle=1;" vertex="1" parent="908">
                    <mxGeometry x="40" width="160" height="40" as="geometry">
                        <mxRectangle width="160" height="40" as="alternateBounds"/>
                    </mxGeometry>
                </mxCell>
                <mxCell id="911" value="&lt;meta charset=&quot;utf-8&quot;&gt;&lt;span style=&quot;color: rgb(63, 63, 63); font-family: Helvetica; font-size: 12px; font-style: normal; font-variant-ligatures: normal; font-variant-caps: normal; font-weight: 700; letter-spacing: normal; orphans: 2; text-align: center; text-indent: 0px; text-transform: none; widows: 2; word-spacing: 0px; -webkit-text-stroke-width: 0px; white-space: normal; background-color: rgb(251, 251, 251); text-decoration-thickness: initial; text-decoration-style: initial; text-decoration-color: initial; display: inline !important; float: none;&quot;&gt;decimal(10,6)&lt;/span&gt;" style="shape=partialRectangle;html=1;whiteSpace=wrap;connectable=0;strokeColor=inherit;overflow=hidden;fillColor=none;top=0;left=0;bottom=0;right=0;pointerEvents=1;fontSize=16;align=center;verticalAlign=middle;fontFamily=Helvetica;fontColor=default;fontStyle=1;" vertex="1" parent="908">
                    <mxGeometry x="200" width="80" height="40" as="geometry">
                        <mxRectangle width="80" height="40" as="alternateBounds"/>
                    </mxGeometry>
                </mxCell>
                <mxCell id="912" value="" style="shape=tableRow;horizontal=0;startSize=0;swimlaneHead=0;swimlaneBody=0;strokeColor=inherit;top=0;left=0;bottom=0;right=0;collapsible=0;dropTarget=0;fillColor=none;points=[[0,0.5],[1,0.5]];portConstraint=eastwest;fontSize=16;align=center;verticalAlign=middle;fontFamily=Helvetica;fontColor=default;fontStyle=1;" vertex="1" parent="859">
                    <mxGeometry y="150" width="280" height="40" as="geometry"/>
                </mxCell>
                <mxCell id="913" value="" style="shape=partialRectangle;html=1;whiteSpace=wrap;connectable=0;strokeColor=inherit;overflow=hidden;fillColor=none;top=0;left=0;bottom=0;right=0;pointerEvents=1;fontSize=16;align=center;verticalAlign=middle;fontFamily=Helvetica;fontColor=default;fontStyle=1;" vertex="1" parent="912">
                    <mxGeometry width="40" height="40" as="geometry">
                        <mxRectangle width="40" height="40" as="alternateBounds"/>
                    </mxGeometry>
                </mxCell>
                <mxCell id="914" value="&lt;span style=&quot;color: rgb(0, 0, 0);&quot;&gt;location_lon&lt;/span&gt;" style="shape=partialRectangle;html=1;whiteSpace=wrap;connectable=0;strokeColor=inherit;overflow=hidden;fillColor=none;top=0;left=0;bottom=0;right=0;pointerEvents=1;fontSize=16;align=center;verticalAlign=middle;fontFamily=Helvetica;fontColor=default;fontStyle=1;" vertex="1" parent="912">
                    <mxGeometry x="40" width="160" height="40" as="geometry">
                        <mxRectangle width="160" height="40" as="alternateBounds"/>
                    </mxGeometry>
                </mxCell>
                <mxCell id="915" value="&lt;span style=&quot;color: rgb(63, 63, 63); font-size: 12px;&quot;&gt;decimal(10,6)&lt;/span&gt;" style="shape=partialRectangle;html=1;whiteSpace=wrap;connectable=0;strokeColor=inherit;overflow=hidden;fillColor=none;top=0;left=0;bottom=0;right=0;pointerEvents=1;fontSize=16;align=center;verticalAlign=middle;fontFamily=Helvetica;fontColor=default;fontStyle=1;" vertex="1" parent="912">
                    <mxGeometry x="200" width="80" height="40" as="geometry">
                        <mxRectangle width="80" height="40" as="alternateBounds"/>
                    </mxGeometry>
                </mxCell>
                <mxCell id="916" value="" style="shape=tableRow;horizontal=0;startSize=0;swimlaneHead=0;swimlaneBody=0;strokeColor=inherit;top=0;left=0;bottom=0;right=0;collapsible=0;dropTarget=0;fillColor=none;points=[[0,0.5],[1,0.5]];portConstraint=eastwest;fontSize=16;align=center;verticalAlign=middle;fontFamily=Helvetica;fontColor=default;fontStyle=1;" vertex="1" parent="859">
                    <mxGeometry y="190" width="280" height="40" as="geometry"/>
                </mxCell>
                <mxCell id="917" value="" style="shape=partialRectangle;html=1;whiteSpace=wrap;connectable=0;strokeColor=inherit;overflow=hidden;fillColor=none;top=0;left=0;bottom=0;right=0;pointerEvents=1;fontSize=16;align=center;verticalAlign=middle;fontFamily=Helvetica;fontColor=default;fontStyle=1;" vertex="1" parent="916">
                    <mxGeometry width="40" height="40" as="geometry">
                        <mxRectangle width="40" height="40" as="alternateBounds"/>
                    </mxGeometry>
                </mxCell>
                <mxCell id="918" value="&lt;span style=&quot;color: rgb(0, 0, 0);&quot;&gt;location_adress&lt;/span&gt;" style="shape=partialRectangle;html=1;whiteSpace=wrap;connectable=0;strokeColor=inherit;overflow=hidden;fillColor=none;top=0;left=0;bottom=0;right=0;pointerEvents=1;fontSize=16;align=center;verticalAlign=middle;fontFamily=Helvetica;fontColor=default;fontStyle=1;" vertex="1" parent="916">
                    <mxGeometry x="40" width="160" height="40" as="geometry">
                        <mxRectangle width="160" height="40" as="alternateBounds"/>
                    </mxGeometry>
                </mxCell>
                <mxCell id="919" value="&lt;span style=&quot;color: rgb(63, 63, 63);&quot;&gt;string&lt;/span&gt;" style="shape=partialRectangle;html=1;whiteSpace=wrap;connectable=0;strokeColor=inherit;overflow=hidden;fillColor=none;top=0;left=0;bottom=0;right=0;pointerEvents=1;fontSize=16;align=center;verticalAlign=middle;fontFamily=Helvetica;fontColor=default;fontStyle=1;" vertex="1" parent="916">
                    <mxGeometry x="200" width="80" height="40" as="geometry">
                        <mxRectangle width="80" height="40" as="alternateBounds"/>
                    </mxGeometry>
                </mxCell>
                <mxCell id="928" value="selected_locations" style="shape=table;startSize=30;container=1;collapsible=0;childLayout=tableLayout;strokeColor=default;fontSize=16;align=center;verticalAlign=middle;fontFamily=Helvetica;fontColor=default;fontStyle=1;fillColor=default;" vertex="1" parent="1">
                    <mxGeometry x="680" y="880" width="280" height="270" as="geometry"/>
                </mxCell>
                <mxCell id="929" value="" style="shape=tableRow;horizontal=0;startSize=0;swimlaneHead=0;swimlaneBody=0;strokeColor=inherit;top=0;left=0;bottom=0;right=0;collapsible=0;dropTarget=0;fillColor=none;points=[[0,0.5],[1,0.5]];portConstraint=eastwest;fontSize=16;align=center;verticalAlign=middle;fontFamily=Helvetica;fontColor=default;fontStyle=1;" vertex="1" parent="928">
                    <mxGeometry y="30" width="280" height="40" as="geometry"/>
                </mxCell>
                <mxCell id="930" value="PK" style="shape=partialRectangle;html=1;whiteSpace=wrap;connectable=0;strokeColor=inherit;overflow=hidden;fillColor=none;top=0;left=0;bottom=0;right=0;pointerEvents=1;fontSize=16;align=center;verticalAlign=middle;fontFamily=Helvetica;fontColor=default;fontStyle=1;" vertex="1" parent="929">
                    <mxGeometry width="40" height="40" as="geometry">
                        <mxRectangle width="40" height="40" as="alternateBounds"/>
                    </mxGeometry>
                </mxCell>
                <mxCell id="931" value="id" style="shape=partialRectangle;html=1;whiteSpace=wrap;connectable=0;strokeColor=inherit;overflow=hidden;fillColor=none;top=0;left=0;bottom=0;right=0;pointerEvents=1;fontSize=16;align=center;verticalAlign=middle;fontFamily=Helvetica;fontColor=default;fontStyle=1;" vertex="1" parent="929">
                    <mxGeometry x="40" width="160" height="40" as="geometry">
                        <mxRectangle width="160" height="40" as="alternateBounds"/>
                    </mxGeometry>
                </mxCell>
                <mxCell id="932" value="int" style="shape=partialRectangle;html=1;whiteSpace=wrap;connectable=0;strokeColor=inherit;overflow=hidden;fillColor=none;top=0;left=0;bottom=0;right=0;pointerEvents=1;fontSize=16;align=center;verticalAlign=middle;fontFamily=Helvetica;fontColor=default;fontStyle=1;" vertex="1" parent="929">
                    <mxGeometry x="200" width="80" height="40" as="geometry">
                        <mxRectangle width="80" height="40" as="alternateBounds"/>
                    </mxGeometry>
                </mxCell>
                <mxCell id="933" value="" style="shape=tableRow;horizontal=0;startSize=0;swimlaneHead=0;swimlaneBody=0;strokeColor=inherit;top=0;left=0;bottom=0;right=0;collapsible=0;dropTarget=0;fillColor=none;points=[[0,0.5],[1,0.5]];portConstraint=eastwest;fontSize=16;align=center;verticalAlign=middle;fontFamily=Helvetica;fontColor=default;fontStyle=1;" vertex="1" parent="928">
                    <mxGeometry y="70" width="280" height="40" as="geometry"/>
                </mxCell>
                <mxCell id="934" value="FK1" style="shape=partialRectangle;html=1;whiteSpace=wrap;connectable=0;strokeColor=inherit;overflow=hidden;fillColor=none;top=0;left=0;bottom=0;right=0;pointerEvents=1;fontSize=16;align=center;verticalAlign=middle;fontFamily=Helvetica;fontColor=default;fontStyle=1;" vertex="1" parent="933">
                    <mxGeometry width="40" height="40" as="geometry">
                        <mxRectangle width="40" height="40" as="alternateBounds"/>
                    </mxGeometry>
                </mxCell>
                <mxCell id="935" value="location_id" style="shape=partialRectangle;html=1;whiteSpace=wrap;connectable=0;strokeColor=inherit;overflow=hidden;fillColor=none;top=0;left=0;bottom=0;right=0;pointerEvents=1;fontSize=16;align=center;verticalAlign=middle;fontFamily=Helvetica;fontColor=default;fontStyle=1;" vertex="1" parent="933">
                    <mxGeometry x="40" width="160" height="40" as="geometry">
                        <mxRectangle width="160" height="40" as="alternateBounds"/>
                    </mxGeometry>
                </mxCell>
                <mxCell id="936" value="int" style="shape=partialRectangle;html=1;whiteSpace=wrap;connectable=0;strokeColor=inherit;overflow=hidden;fillColor=none;top=0;left=0;bottom=0;right=0;pointerEvents=1;fontSize=16;align=center;verticalAlign=middle;fontFamily=Helvetica;fontColor=default;fontStyle=1;" vertex="1" parent="933">
                    <mxGeometry x="200" width="80" height="40" as="geometry">
                        <mxRectangle width="80" height="40" as="alternateBounds"/>
                    </mxGeometry>
                </mxCell>
                <mxCell id="937" value="" style="shape=tableRow;horizontal=0;startSize=0;swimlaneHead=0;swimlaneBody=0;strokeColor=inherit;top=0;left=0;bottom=0;right=0;collapsible=0;dropTarget=0;fillColor=none;points=[[0,0.5],[1,0.5]];portConstraint=eastwest;fontSize=16;align=center;verticalAlign=middle;fontFamily=Helvetica;fontColor=default;fontStyle=1;" vertex="1" parent="928">
                    <mxGeometry y="110" width="280" height="40" as="geometry"/>
                </mxCell>
                <mxCell id="938" value="FK2" style="shape=partialRectangle;html=1;whiteSpace=wrap;connectable=0;strokeColor=inherit;overflow=hidden;fillColor=none;top=0;left=0;bottom=0;right=0;pointerEvents=1;fontSize=16;align=center;verticalAlign=middle;fontFamily=Helvetica;fontColor=default;fontStyle=1;" vertex="1" parent="937">
                    <mxGeometry width="40" height="40" as="geometry">
                        <mxRectangle width="40" height="40" as="alternateBounds"/>
                    </mxGeometry>
                </mxCell>
                <mxCell id="939" value="route_segment_id" style="shape=partialRectangle;html=1;whiteSpace=wrap;connectable=0;strokeColor=inherit;overflow=hidden;fillColor=none;top=0;left=0;bottom=0;right=0;pointerEvents=1;fontSize=16;align=center;verticalAlign=middle;fontFamily=Helvetica;fontColor=default;fontStyle=1;" vertex="1" parent="937">
                    <mxGeometry x="40" width="160" height="40" as="geometry">
                        <mxRectangle width="160" height="40" as="alternateBounds"/>
                    </mxGeometry>
                </mxCell>
                <mxCell id="940" value="&lt;font style=&quot;font-size: 16px;&quot;&gt;int&lt;/font&gt;" style="shape=partialRectangle;html=1;whiteSpace=wrap;connectable=0;strokeColor=inherit;overflow=hidden;fillColor=none;top=0;left=0;bottom=0;right=0;pointerEvents=1;fontSize=16;align=center;verticalAlign=middle;fontFamily=Helvetica;fontColor=default;fontStyle=1;" vertex="1" parent="937">
                    <mxGeometry x="200" width="80" height="40" as="geometry">
                        <mxRectangle width="80" height="40" as="alternateBounds"/>
                    </mxGeometry>
                </mxCell>
                <mxCell id="1200" value="" style="shape=tableRow;horizontal=0;startSize=0;swimlaneHead=0;swimlaneBody=0;strokeColor=inherit;top=0;left=0;bottom=0;right=0;collapsible=0;dropTarget=0;fillColor=none;points=[[0,0.5],[1,0.5]];portConstraint=eastwest;fontSize=16;align=center;verticalAlign=middle;fontFamily=Helvetica;fontColor=default;fontStyle=1;" vertex="1" parent="928">
                    <mxGeometry y="150" width="280" height="40" as="geometry"/>
                </mxCell>
                <mxCell id="1201" value="" style="shape=partialRectangle;html=1;whiteSpace=wrap;connectable=0;strokeColor=inherit;overflow=hidden;fillColor=none;top=0;left=0;bottom=0;right=0;pointerEvents=1;fontSize=16;align=center;verticalAlign=middle;fontFamily=Helvetica;fontColor=default;fontStyle=1;" vertex="1" parent="1200">
                    <mxGeometry width="40" height="40" as="geometry">
                        <mxRectangle width="40" height="40" as="alternateBounds"/>
                    </mxGeometry>
                </mxCell>
                <mxCell id="1202" value="name" style="shape=partialRectangle;html=1;whiteSpace=wrap;connectable=0;strokeColor=inherit;overflow=hidden;fillColor=none;top=0;left=0;bottom=0;right=0;pointerEvents=1;fontSize=16;align=center;verticalAlign=middle;fontFamily=Helvetica;fontColor=default;fontStyle=1;" vertex="1" parent="1200">
                    <mxGeometry x="40" width="160" height="40" as="geometry">
                        <mxRectangle width="160" height="40" as="alternateBounds"/>
                    </mxGeometry>
                </mxCell>
                <mxCell id="1203" value="&lt;font style=&quot;font-size: 16px;&quot;&gt;string&lt;/font&gt;" style="shape=partialRectangle;html=1;whiteSpace=wrap;connectable=0;strokeColor=inherit;overflow=hidden;fillColor=none;top=0;left=0;bottom=0;right=0;pointerEvents=1;fontSize=16;align=center;verticalAlign=middle;fontFamily=Helvetica;fontColor=default;fontStyle=1;" vertex="1" parent="1200">
                    <mxGeometry x="200" width="80" height="40" as="geometry">
                        <mxRectangle width="80" height="40" as="alternateBounds"/>
                    </mxGeometry>
                </mxCell>
                <mxCell id="1204" value="" style="shape=tableRow;horizontal=0;startSize=0;swimlaneHead=0;swimlaneBody=0;strokeColor=inherit;top=0;left=0;bottom=0;right=0;collapsible=0;dropTarget=0;fillColor=none;points=[[0,0.5],[1,0.5]];portConstraint=eastwest;fontSize=16;align=center;verticalAlign=middle;fontFamily=Helvetica;fontColor=default;fontStyle=1;" vertex="1" parent="928">
                    <mxGeometry y="190" width="280" height="40" as="geometry"/>
                </mxCell>
                <mxCell id="1205" value="" style="shape=partialRectangle;html=1;whiteSpace=wrap;connectable=0;strokeColor=inherit;overflow=hidden;fillColor=none;top=0;left=0;bottom=0;right=0;pointerEvents=1;fontSize=16;align=center;verticalAlign=middle;fontFamily=Helvetica;fontColor=default;fontStyle=1;" vertex="1" parent="1204">
                    <mxGeometry width="40" height="40" as="geometry">
                        <mxRectangle width="40" height="40" as="alternateBounds"/>
                    </mxGeometry>
                </mxCell>
                <mxCell id="1206" value="&lt;span style=&quot;color: rgb(0, 0, 0);&quot;&gt;created_at&lt;/span&gt;" style="shape=partialRectangle;html=1;whiteSpace=wrap;connectable=0;strokeColor=inherit;overflow=hidden;fillColor=none;top=0;left=0;bottom=0;right=0;pointerEvents=1;fontSize=16;align=center;verticalAlign=middle;fontFamily=Helvetica;fontColor=default;fontStyle=1;" vertex="1" parent="1204">
                    <mxGeometry x="40" width="160" height="40" as="geometry">
                        <mxRectangle width="160" height="40" as="alternateBounds"/>
                    </mxGeometry>
                </mxCell>
                <mxCell id="1207" value="&lt;span style=&quot;color: rgb(0, 0, 0);&quot;&gt;datetime&lt;/span&gt;" style="shape=partialRectangle;html=1;whiteSpace=wrap;connectable=0;strokeColor=inherit;overflow=hidden;fillColor=none;top=0;left=0;bottom=0;right=0;pointerEvents=1;fontSize=16;align=center;verticalAlign=middle;fontFamily=Helvetica;fontColor=default;fontStyle=1;" vertex="1" parent="1204">
                    <mxGeometry x="200" width="80" height="40" as="geometry">
                        <mxRectangle width="80" height="40" as="alternateBounds"/>
                    </mxGeometry>
                </mxCell>
                <mxCell id="1229" value="" style="shape=tableRow;horizontal=0;startSize=0;swimlaneHead=0;swimlaneBody=0;strokeColor=inherit;top=0;left=0;bottom=0;right=0;collapsible=0;dropTarget=0;fillColor=none;points=[[0,0.5],[1,0.5]];portConstraint=eastwest;fontSize=16;align=center;verticalAlign=middle;fontFamily=Helvetica;fontColor=default;fontStyle=1;" vertex="1" parent="928">
                    <mxGeometry y="230" width="280" height="40" as="geometry"/>
                </mxCell>
                <mxCell id="1230" value="" style="shape=partialRectangle;html=1;whiteSpace=wrap;connectable=0;strokeColor=inherit;overflow=hidden;fillColor=none;top=0;left=0;bottom=0;right=0;pointerEvents=1;fontSize=16;align=center;verticalAlign=middle;fontFamily=Helvetica;fontColor=default;fontStyle=1;" vertex="1" parent="1229">
                    <mxGeometry width="40" height="40" as="geometry">
                        <mxRectangle width="40" height="40" as="alternateBounds"/>
                    </mxGeometry>
                </mxCell>
                <mxCell id="1231" value="&lt;span style=&quot;color: rgb(0, 0, 0);&quot;&gt;updated_at&lt;/span&gt;" style="shape=partialRectangle;html=1;whiteSpace=wrap;connectable=0;strokeColor=inherit;overflow=hidden;fillColor=none;top=0;left=0;bottom=0;right=0;pointerEvents=1;fontSize=16;align=center;verticalAlign=middle;fontFamily=Helvetica;fontColor=default;fontStyle=1;" vertex="1" parent="1229">
                    <mxGeometry x="40" width="160" height="40" as="geometry">
                        <mxRectangle width="160" height="40" as="alternateBounds"/>
                    </mxGeometry>
                </mxCell>
                <mxCell id="1232" value="&lt;span style=&quot;color: rgb(0, 0, 0);&quot;&gt;datetime&lt;/span&gt;" style="shape=partialRectangle;html=1;whiteSpace=wrap;connectable=0;strokeColor=inherit;overflow=hidden;fillColor=none;top=0;left=0;bottom=0;right=0;pointerEvents=1;fontSize=16;align=center;verticalAlign=middle;fontFamily=Helvetica;fontColor=default;fontStyle=1;" vertex="1" parent="1229">
                    <mxGeometry x="200" width="80" height="40" as="geometry">
                        <mxRectangle width="80" height="40" as="alternateBounds"/>
                    </mxGeometry>
                </mxCell>
                <mxCell id="949" value="selected_route_segments" style="shape=table;startSize=30;container=1;collapsible=0;childLayout=tableLayout;strokeColor=default;fontSize=16;align=center;verticalAlign=middle;fontFamily=Helvetica;fontColor=default;fontStyle=1;fillColor=default;" vertex="1" parent="1">
                    <mxGeometry x="1340" y="840" width="280" height="190" as="geometry"/>
                </mxCell>
                <mxCell id="950" value="" style="shape=tableRow;horizontal=0;startSize=0;swimlaneHead=0;swimlaneBody=0;strokeColor=inherit;top=0;left=0;bottom=0;right=0;collapsible=0;dropTarget=0;fillColor=none;points=[[0,0.5],[1,0.5]];portConstraint=eastwest;fontSize=16;align=center;verticalAlign=middle;fontFamily=Helvetica;fontColor=default;fontStyle=1;" vertex="1" parent="949">
                    <mxGeometry y="30" width="280" height="40" as="geometry"/>
                </mxCell>
                <mxCell id="951" value="PK" style="shape=partialRectangle;html=1;whiteSpace=wrap;connectable=0;strokeColor=inherit;overflow=hidden;fillColor=none;top=0;left=0;bottom=0;right=0;pointerEvents=1;fontSize=16;align=center;verticalAlign=middle;fontFamily=Helvetica;fontColor=default;fontStyle=1;" vertex="1" parent="950">
                    <mxGeometry width="40" height="40" as="geometry">
                        <mxRectangle width="40" height="40" as="alternateBounds"/>
                    </mxGeometry>
                </mxCell>
                <mxCell id="952" value="id" style="shape=partialRectangle;html=1;whiteSpace=wrap;connectable=0;strokeColor=inherit;overflow=hidden;fillColor=none;top=0;left=0;bottom=0;right=0;pointerEvents=1;fontSize=16;align=center;verticalAlign=middle;fontFamily=Helvetica;fontColor=default;fontStyle=1;" vertex="1" parent="950">
                    <mxGeometry x="40" width="160" height="40" as="geometry">
                        <mxRectangle width="160" height="40" as="alternateBounds"/>
                    </mxGeometry>
                </mxCell>
                <mxCell id="953" value="int" style="shape=partialRectangle;html=1;whiteSpace=wrap;connectable=0;strokeColor=inherit;overflow=hidden;fillColor=none;top=0;left=0;bottom=0;right=0;pointerEvents=1;fontSize=16;align=center;verticalAlign=middle;fontFamily=Helvetica;fontColor=default;fontStyle=1;" vertex="1" parent="950">
                    <mxGeometry x="200" width="80" height="40" as="geometry">
                        <mxRectangle width="80" height="40" as="alternateBounds"/>
                    </mxGeometry>
                </mxCell>
                <mxCell id="954" value="" style="shape=tableRow;horizontal=0;startSize=0;swimlaneHead=0;swimlaneBody=0;strokeColor=inherit;top=0;left=0;bottom=0;right=0;collapsible=0;dropTarget=0;fillColor=none;points=[[0,0.5],[1,0.5]];portConstraint=eastwest;fontSize=16;align=center;verticalAlign=middle;fontFamily=Helvetica;fontColor=default;fontStyle=1;" vertex="1" parent="949">
                    <mxGeometry y="70" width="280" height="40" as="geometry"/>
                </mxCell>
                <mxCell id="955" value="FK1" style="shape=partialRectangle;html=1;whiteSpace=wrap;connectable=0;strokeColor=inherit;overflow=hidden;fillColor=none;top=0;left=0;bottom=0;right=0;pointerEvents=1;fontSize=16;align=center;verticalAlign=middle;fontFamily=Helvetica;fontColor=default;fontStyle=1;" vertex="1" parent="954">
                    <mxGeometry width="40" height="40" as="geometry">
                        <mxRectangle width="40" height="40" as="alternateBounds"/>
                    </mxGeometry>
                </mxCell>
                <mxCell id="956" value="route_id" style="shape=partialRectangle;html=1;whiteSpace=wrap;connectable=0;strokeColor=inherit;overflow=hidden;fillColor=none;top=0;left=0;bottom=0;right=0;pointerEvents=1;fontSize=16;align=center;verticalAlign=middle;fontFamily=Helvetica;fontColor=default;fontStyle=1;" vertex="1" parent="954">
                    <mxGeometry x="40" width="160" height="40" as="geometry">
                        <mxRectangle width="160" height="40" as="alternateBounds"/>
                    </mxGeometry>
                </mxCell>
                <mxCell id="957" value="int" style="shape=partialRectangle;html=1;whiteSpace=wrap;connectable=0;strokeColor=inherit;overflow=hidden;fillColor=none;top=0;left=0;bottom=0;right=0;pointerEvents=1;fontSize=16;align=center;verticalAlign=middle;fontFamily=Helvetica;fontColor=default;fontStyle=1;" vertex="1" parent="954">
                    <mxGeometry x="200" width="80" height="40" as="geometry">
                        <mxRectangle width="80" height="40" as="alternateBounds"/>
                    </mxGeometry>
                </mxCell>
                <mxCell id="958" value="" style="shape=tableRow;horizontal=0;startSize=0;swimlaneHead=0;swimlaneBody=0;strokeColor=inherit;top=0;left=0;bottom=0;right=0;collapsible=0;dropTarget=0;fillColor=none;points=[[0,0.5],[1,0.5]];portConstraint=eastwest;fontSize=16;align=center;verticalAlign=middle;fontFamily=Helvetica;fontColor=default;fontStyle=1;" vertex="1" parent="949">
                    <mxGeometry y="110" width="280" height="40" as="geometry"/>
                </mxCell>
                <mxCell id="959" value="FK2" style="shape=partialRectangle;html=1;whiteSpace=wrap;connectable=0;strokeColor=inherit;overflow=hidden;fillColor=none;top=0;left=0;bottom=0;right=0;pointerEvents=1;fontSize=16;align=center;verticalAlign=middle;fontFamily=Helvetica;fontColor=default;fontStyle=1;" vertex="1" parent="958">
                    <mxGeometry width="40" height="40" as="geometry">
                        <mxRectangle width="40" height="40" as="alternateBounds"/>
                    </mxGeometry>
                </mxCell>
                <mxCell id="960" value="route_segment_id" style="shape=partialRectangle;html=1;whiteSpace=wrap;connectable=0;strokeColor=inherit;overflow=hidden;fillColor=none;top=0;left=0;bottom=0;right=0;pointerEvents=1;fontSize=16;align=center;verticalAlign=middle;fontFamily=Helvetica;fontColor=default;fontStyle=1;" vertex="1" parent="958">
                    <mxGeometry x="40" width="160" height="40" as="geometry">
                        <mxRectangle width="160" height="40" as="alternateBounds"/>
                    </mxGeometry>
                </mxCell>
                <mxCell id="961" value="int" style="shape=partialRectangle;html=1;whiteSpace=wrap;connectable=0;strokeColor=inherit;overflow=hidden;fillColor=none;top=0;left=0;bottom=0;right=0;pointerEvents=1;fontSize=16;align=center;verticalAlign=middle;fontFamily=Helvetica;fontColor=default;fontStyle=1;" vertex="1" parent="958">
                    <mxGeometry x="200" width="80" height="40" as="geometry">
                        <mxRectangle width="80" height="40" as="alternateBounds"/>
                    </mxGeometry>
                </mxCell>
                <mxCell id="1106" value="" style="shape=tableRow;horizontal=0;startSize=0;swimlaneHead=0;swimlaneBody=0;strokeColor=inherit;top=0;left=0;bottom=0;right=0;collapsible=0;dropTarget=0;fillColor=none;points=[[0,0.5],[1,0.5]];portConstraint=eastwest;fontSize=16;align=center;verticalAlign=middle;fontFamily=Helvetica;fontColor=default;fontStyle=1;" vertex="1" parent="949">
                    <mxGeometry y="150" width="280" height="40" as="geometry"/>
                </mxCell>
                <mxCell id="1107" value="" style="shape=partialRectangle;html=1;whiteSpace=wrap;connectable=0;strokeColor=inherit;overflow=hidden;fillColor=none;top=0;left=0;bottom=0;right=0;pointerEvents=1;fontSize=16;align=center;verticalAlign=middle;fontFamily=Helvetica;fontColor=default;fontStyle=1;" vertex="1" parent="1106">
                    <mxGeometry width="40" height="40" as="geometry">
                        <mxRectangle width="40" height="40" as="alternateBounds"/>
                    </mxGeometry>
                </mxCell>
                <mxCell id="1108" value="order_index(順番)" style="shape=partialRectangle;html=1;whiteSpace=wrap;connectable=0;strokeColor=inherit;overflow=hidden;fillColor=none;top=0;left=0;bottom=0;right=0;pointerEvents=1;fontSize=16;align=center;verticalAlign=middle;fontFamily=Helvetica;fontColor=default;fontStyle=1;" vertex="1" parent="1106">
                    <mxGeometry x="40" width="160" height="40" as="geometry">
                        <mxRectangle width="160" height="40" as="alternateBounds"/>
                    </mxGeometry>
                </mxCell>
                <mxCell id="1109" value="int" style="shape=partialRectangle;html=1;whiteSpace=wrap;connectable=0;strokeColor=inherit;overflow=hidden;fillColor=none;top=0;left=0;bottom=0;right=0;pointerEvents=1;fontSize=16;align=center;verticalAlign=middle;fontFamily=Helvetica;fontColor=default;fontStyle=1;" vertex="1" parent="1106">
                    <mxGeometry x="200" width="80" height="40" as="geometry">
                        <mxRectangle width="80" height="40" as="alternateBounds"/>
                    </mxGeometry>
                </mxCell>
                <mxCell id="967" style="edgeStyle=none;html=1;exitX=1;exitY=0.5;exitDx=0;exitDy=0;entryX=0;entryY=0.5;entryDx=0;entryDy=0;fontFamily=Helvetica;fontSize=12;fontColor=default;fontStyle=1;endArrow=ERoneToMany;endFill=0;startArrow=ERone;startFill=0;strokeWidth=3;" edge="1" parent="1">
                    <mxGeometry relative="1" as="geometry">
                        <mxPoint x="520" y="594.41" as="sourcePoint"/>
                        <mxPoint x="680" y="594.41" as="targetPoint"/>
                    </mxGeometry>
                </mxCell>
                <mxCell id="968" value="" style="endArrow=ERoneToMany;html=1;fontFamily=Helvetica;fontSize=12;fontColor=default;fontStyle=1;entryX=0.525;entryY=0;entryDx=0;entryDy=0;entryPerimeter=0;strokeWidth=3;endFill=0;startArrow=ERone;startFill=0;" edge="1" parent="1">
                    <mxGeometry width="50" height="50" relative="1" as="geometry">
                        <mxPoint x="820" y="710" as="sourcePoint"/>
                        <mxPoint x="819.6200000000002" y="880" as="targetPoint"/>
                    </mxGeometry>
                </mxCell>
                <mxCell id="969" style="edgeStyle=none;html=1;fontFamily=Helvetica;fontSize=12;fontColor=default;fontStyle=1;endArrow=ERone;endFill=0;startArrow=ERoneToMany;startFill=0;strokeWidth=3;entryX=0.002;entryY=0.258;entryDx=0;entryDy=0;entryPerimeter=0;exitX=1;exitY=0.5;exitDx=0;exitDy=0;" edge="1" parent="1" source="929" target="1081">
                    <mxGeometry relative="1" as="geometry">
                        <mxPoint x="970" y="920" as="sourcePoint"/>
                        <mxPoint x="1118" y="600" as="targetPoint"/>
                        <Array as="points">
                            <mxPoint x="1040" y="930"/>
                            <mxPoint x="1040" y="600"/>
                        </Array>
                    </mxGeometry>
                </mxCell>
                <mxCell id="970" style="edgeStyle=none;html=1;fontFamily=Helvetica;fontSize=12;fontColor=default;fontStyle=1;endArrow=ERone;endFill=0;startArrow=ERoneToMany;startFill=0;strokeWidth=3;entryX=0.456;entryY=0.996;entryDx=0;entryDy=0;exitX=0;exitY=0.5;exitDx=0;exitDy=0;entryPerimeter=0;" edge="1" parent="1" source="954" target="1158">
                    <mxGeometry relative="1" as="geometry">
                        <mxPoint x="1230.0000000000002" y="860" as="sourcePoint"/>
                        <mxPoint x="1330.8" y="1040" as="targetPoint"/>
                        <Array as="points">
                            <mxPoint x="1247" y="930"/>
                        </Array>
                    </mxGeometry>
                </mxCell>
                <mxCell id="981" style="edgeStyle=none;html=1;fontFamily=Helvetica;fontSize=12;fontColor=default;fontStyle=1;endArrow=ERone;endFill=0;startArrow=ERoneToMany;startFill=0;strokeWidth=3;exitX=1.003;exitY=0.236;exitDx=0;exitDy=0;exitPerimeter=0;entryX=0.567;entryY=1.011;entryDx=0;entryDy=0;entryPerimeter=0;" edge="1" parent="1" target="839">
                    <mxGeometry relative="1" as="geometry">
                        <mxPoint x="1620" y="930" as="sourcePoint"/>
                        <mxPoint x="1780" y="931" as="targetPoint"/>
                        <Array as="points">
                            <mxPoint x="1719" y="930"/>
                        </Array>
                    </mxGeometry>
                </mxCell>
                <mxCell id="987" style="edgeStyle=none;html=1;fontFamily=Helvetica;fontSize=12;fontColor=default;fontStyle=1;endArrow=ERoneToMany;endFill=0;startArrow=ERone;startFill=0;strokeWidth=3;exitX=0.997;exitY=0.245;exitDx=0;exitDy=0;exitPerimeter=0;entryX=0;entryY=0.25;entryDx=0;entryDy=0;entryPerimeter=0;" edge="1" parent="1" source="439" target="685">
                    <mxGeometry relative="1" as="geometry">
                        <mxPoint x="530" y="140" as="sourcePoint"/>
                        <mxPoint x="670" y="150" as="targetPoint"/>
                    </mxGeometry>
                </mxCell>
                <mxCell id="1068" value="route＿segments" style="shape=table;startSize=30;container=1;collapsible=0;childLayout=tableLayout;strokeColor=default;fontSize=16;align=center;verticalAlign=middle;fontFamily=Helvetica;fontColor=default;fontStyle=1;fillColor=default;" vertex="1" parent="1">
                    <mxGeometry x="1120" y="480" width="280" height="310" as="geometry"/>
                </mxCell>
                <mxCell id="1069" value="" style="shape=tableRow;horizontal=0;startSize=0;swimlaneHead=0;swimlaneBody=0;strokeColor=inherit;top=0;left=0;bottom=0;right=0;collapsible=0;dropTarget=0;fillColor=none;points=[[0,0.5],[1,0.5]];portConstraint=eastwest;fontSize=16;align=center;verticalAlign=middle;fontFamily=Helvetica;fontColor=default;fontStyle=1;" vertex="1" parent="1068">
                    <mxGeometry y="30" width="280" height="40" as="geometry"/>
                </mxCell>
                <mxCell id="1070" value="PK" style="shape=partialRectangle;html=1;whiteSpace=wrap;connectable=0;strokeColor=inherit;overflow=hidden;fillColor=none;top=0;left=0;bottom=0;right=0;pointerEvents=1;fontSize=16;align=center;verticalAlign=middle;fontFamily=Helvetica;fontColor=default;fontStyle=1;" vertex="1" parent="1069">
                    <mxGeometry width="40" height="40" as="geometry">
                        <mxRectangle width="40" height="40" as="alternateBounds"/>
                    </mxGeometry>
                </mxCell>
                <mxCell id="1071" value="id" style="shape=partialRectangle;html=1;whiteSpace=wrap;connectable=0;strokeColor=inherit;overflow=hidden;fillColor=none;top=0;left=0;bottom=0;right=0;pointerEvents=1;fontSize=16;align=center;verticalAlign=middle;fontFamily=Helvetica;fontColor=default;fontStyle=1;" vertex="1" parent="1069">
                    <mxGeometry x="40" width="160" height="40" as="geometry">
                        <mxRectangle width="160" height="40" as="alternateBounds"/>
                    </mxGeometry>
                </mxCell>
                <mxCell id="1072" value="int" style="shape=partialRectangle;html=1;whiteSpace=wrap;connectable=0;strokeColor=inherit;overflow=hidden;fillColor=none;top=0;left=0;bottom=0;right=0;pointerEvents=1;fontSize=16;align=center;verticalAlign=middle;fontFamily=Helvetica;fontColor=default;fontStyle=1;" vertex="1" parent="1069">
                    <mxGeometry x="200" width="80" height="40" as="geometry">
                        <mxRectangle width="80" height="40" as="alternateBounds"/>
                    </mxGeometry>
                </mxCell>
                <mxCell id="1073" value="" style="shape=tableRow;horizontal=0;startSize=0;swimlaneHead=0;swimlaneBody=0;strokeColor=inherit;top=0;left=0;bottom=0;right=0;collapsible=0;dropTarget=0;fillColor=none;points=[[0,0.5],[1,0.5]];portConstraint=eastwest;fontSize=16;align=center;verticalAlign=middle;fontFamily=Helvetica;fontColor=default;fontStyle=1;" vertex="1" parent="1068">
                    <mxGeometry y="70" width="280" height="40" as="geometry"/>
                </mxCell>
                <mxCell id="1074" value="FK1" style="shape=partialRectangle;html=1;whiteSpace=wrap;connectable=0;strokeColor=inherit;overflow=hidden;fillColor=none;top=0;left=0;bottom=0;right=0;pointerEvents=1;fontSize=16;align=center;verticalAlign=middle;fontFamily=Helvetica;fontColor=default;fontStyle=1;" vertex="1" parent="1073">
                    <mxGeometry width="40" height="40" as="geometry">
                        <mxRectangle width="40" height="40" as="alternateBounds"/>
                    </mxGeometry>
                </mxCell>
                <mxCell id="1075" value="&lt;span style=&quot;color: rgb(0, 0, 0);&quot;&gt;user_id&lt;/span&gt;" style="shape=partialRectangle;html=1;whiteSpace=wrap;connectable=0;strokeColor=inherit;overflow=hidden;fillColor=none;top=0;left=0;bottom=0;right=0;pointerEvents=1;fontSize=16;align=center;verticalAlign=middle;fontFamily=Helvetica;fontColor=default;fontStyle=1;" vertex="1" parent="1073">
                    <mxGeometry x="40" width="160" height="40" as="geometry">
                        <mxRectangle width="160" height="40" as="alternateBounds"/>
                    </mxGeometry>
                </mxCell>
                <mxCell id="1076" value="int" style="shape=partialRectangle;html=1;whiteSpace=wrap;connectable=0;strokeColor=inherit;overflow=hidden;fillColor=none;top=0;left=0;bottom=0;right=0;pointerEvents=1;fontSize=16;align=center;verticalAlign=middle;fontFamily=Helvetica;fontColor=default;fontStyle=1;" vertex="1" parent="1073">
                    <mxGeometry x="200" width="80" height="40" as="geometry">
                        <mxRectangle width="80" height="40" as="alternateBounds"/>
                    </mxGeometry>
                </mxCell>
                <mxCell id="1081" value="" style="shape=tableRow;horizontal=0;startSize=0;swimlaneHead=0;swimlaneBody=0;strokeColor=inherit;top=0;left=0;bottom=0;right=0;collapsible=0;dropTarget=0;fillColor=none;points=[[0,0.5],[1,0.5]];portConstraint=eastwest;fontSize=16;align=center;verticalAlign=middle;fontFamily=Helvetica;fontColor=default;fontStyle=1;" vertex="1" parent="1068">
                    <mxGeometry y="110" width="280" height="40" as="geometry"/>
                </mxCell>
                <mxCell id="1082" value="FK2" style="shape=partialRectangle;html=1;whiteSpace=wrap;connectable=0;strokeColor=inherit;overflow=hidden;fillColor=none;top=0;left=0;bottom=0;right=0;pointerEvents=1;fontSize=16;align=center;verticalAlign=middle;fontFamily=Helvetica;fontColor=default;fontStyle=1;" vertex="1" parent="1081">
                    <mxGeometry width="40" height="40" as="geometry">
                        <mxRectangle width="40" height="40" as="alternateBounds"/>
                    </mxGeometry>
                </mxCell>
                <mxCell id="1083" value="&lt;span style=&quot;color: rgb(0, 0, 0);&quot;&gt;selected_location_id&lt;/span&gt;" style="shape=partialRectangle;html=1;whiteSpace=wrap;connectable=0;strokeColor=inherit;overflow=hidden;fillColor=none;top=0;left=0;bottom=0;right=0;pointerEvents=1;fontSize=16;align=center;verticalAlign=middle;fontFamily=Helvetica;fontColor=default;fontStyle=1;" vertex="1" parent="1081">
                    <mxGeometry x="40" width="160" height="40" as="geometry">
                        <mxRectangle width="160" height="40" as="alternateBounds"/>
                    </mxGeometry>
                </mxCell>
                <mxCell id="1084" value="&lt;span style=&quot;color: rgb(0, 0, 0);&quot;&gt;int&lt;/span&gt;" style="shape=partialRectangle;html=1;whiteSpace=wrap;connectable=0;strokeColor=inherit;overflow=hidden;fillColor=none;top=0;left=0;bottom=0;right=0;pointerEvents=1;fontSize=16;align=center;verticalAlign=middle;fontFamily=Helvetica;fontColor=default;fontStyle=1;" vertex="1" parent="1081">
                    <mxGeometry x="200" width="80" height="40" as="geometry">
                        <mxRectangle width="80" height="40" as="alternateBounds"/>
                    </mxGeometry>
                </mxCell>
                <mxCell id="1085" value="" style="shape=tableRow;horizontal=0;startSize=0;swimlaneHead=0;swimlaneBody=0;strokeColor=inherit;top=0;left=0;bottom=0;right=0;collapsible=0;dropTarget=0;fillColor=none;points=[[0,0.5],[1,0.5]];portConstraint=eastwest;fontSize=16;align=center;verticalAlign=middle;fontFamily=Helvetica;fontColor=default;fontStyle=1;" vertex="1" parent="1068">
                    <mxGeometry y="150" width="280" height="40" as="geometry"/>
                </mxCell>
                <mxCell id="1086" value="" style="shape=partialRectangle;html=1;whiteSpace=wrap;connectable=0;strokeColor=inherit;overflow=hidden;fillColor=none;top=0;left=0;bottom=0;right=0;pointerEvents=1;fontSize=16;align=center;verticalAlign=middle;fontFamily=Helvetica;fontColor=default;fontStyle=1;" vertex="1" parent="1085">
                    <mxGeometry width="40" height="40" as="geometry">
                        <mxRectangle width="40" height="40" as="alternateBounds"/>
                    </mxGeometry>
                </mxCell>
                <mxCell id="1087" value="&lt;span style=&quot;color: rgb(0, 0, 0);&quot;&gt;origin_location_id&lt;/span&gt;&lt;div&gt;(出発点)&lt;/div&gt;" style="shape=partialRectangle;html=1;whiteSpace=wrap;connectable=0;strokeColor=inherit;overflow=hidden;fillColor=none;top=0;left=0;bottom=0;right=0;pointerEvents=1;fontSize=16;align=center;verticalAlign=middle;fontFamily=Helvetica;fontColor=default;fontStyle=1;" vertex="1" parent="1085">
                    <mxGeometry x="40" width="160" height="40" as="geometry">
                        <mxRectangle width="160" height="40" as="alternateBounds"/>
                    </mxGeometry>
                </mxCell>
                <mxCell id="1088" value="int" style="shape=partialRectangle;html=1;whiteSpace=wrap;connectable=0;strokeColor=inherit;overflow=hidden;fillColor=none;top=0;left=0;bottom=0;right=0;pointerEvents=1;fontSize=16;align=center;verticalAlign=middle;fontFamily=Helvetica;fontColor=default;fontStyle=1;" vertex="1" parent="1085">
                    <mxGeometry x="200" width="80" height="40" as="geometry">
                        <mxRectangle width="80" height="40" as="alternateBounds"/>
                    </mxGeometry>
                </mxCell>
                <mxCell id="1089" value="" style="shape=tableRow;horizontal=0;startSize=0;swimlaneHead=0;swimlaneBody=0;strokeColor=inherit;top=0;left=0;bottom=0;right=0;collapsible=0;dropTarget=0;fillColor=none;points=[[0,0.5],[1,0.5]];portConstraint=eastwest;fontSize=16;align=center;verticalAlign=middle;fontFamily=Helvetica;fontColor=default;fontStyle=1;" vertex="1" parent="1068">
                    <mxGeometry y="190" width="280" height="40" as="geometry"/>
                </mxCell>
                <mxCell id="1090" value="" style="shape=partialRectangle;html=1;whiteSpace=wrap;connectable=0;strokeColor=inherit;overflow=hidden;fillColor=none;top=0;left=0;bottom=0;right=0;pointerEvents=1;fontSize=16;align=center;verticalAlign=middle;fontFamily=Helvetica;fontColor=default;fontStyle=1;" vertex="1" parent="1089">
                    <mxGeometry width="40" height="40" as="geometry">
                        <mxRectangle width="40" height="40" as="alternateBounds"/>
                    </mxGeometry>
                </mxCell>
                <mxCell id="1091" value="&lt;span style=&quot;color: rgb(0, 0, 0);&quot;&gt;&lt;font style=&quot;font-size: 13px;&quot;&gt;segment_destination_id&lt;/font&gt;&lt;/span&gt;&lt;div&gt;&lt;font size=&quot;3&quot;&gt;(目的地)&lt;/font&gt;&lt;/div&gt;" style="shape=partialRectangle;html=1;whiteSpace=wrap;connectable=0;strokeColor=inherit;overflow=hidden;fillColor=none;top=0;left=0;bottom=0;right=0;pointerEvents=1;fontSize=16;align=center;verticalAlign=middle;fontFamily=Helvetica;fontColor=default;fontStyle=1;" vertex="1" parent="1089">
                    <mxGeometry x="40" width="160" height="40" as="geometry">
                        <mxRectangle width="160" height="40" as="alternateBounds"/>
                    </mxGeometry>
                </mxCell>
                <mxCell id="1092" value="&lt;span style=&quot;color: rgb(0, 0, 0);&quot;&gt;int&lt;/span&gt;" style="shape=partialRectangle;html=1;whiteSpace=wrap;connectable=0;strokeColor=inherit;overflow=hidden;fillColor=none;top=0;left=0;bottom=0;right=0;pointerEvents=1;fontSize=16;align=center;verticalAlign=middle;fontFamily=Helvetica;fontColor=default;fontStyle=1;" vertex="1" parent="1089">
                    <mxGeometry x="200" width="80" height="40" as="geometry">
                        <mxRectangle width="80" height="40" as="alternateBounds"/>
                    </mxGeometry>
                </mxCell>
                <mxCell id="1093" value="" style="shape=tableRow;horizontal=0;startSize=0;swimlaneHead=0;swimlaneBody=0;strokeColor=inherit;top=0;left=0;bottom=0;right=0;collapsible=0;dropTarget=0;fillColor=none;points=[[0,0.5],[1,0.5]];portConstraint=eastwest;fontSize=16;align=center;verticalAlign=middle;fontFamily=Helvetica;fontColor=default;fontStyle=1;" vertex="1" parent="1068">
                    <mxGeometry y="230" width="280" height="40" as="geometry"/>
                </mxCell>
                <mxCell id="1094" value="" style="shape=partialRectangle;html=1;whiteSpace=wrap;connectable=0;strokeColor=inherit;overflow=hidden;fillColor=none;top=0;left=0;bottom=0;right=0;pointerEvents=1;fontSize=16;align=center;verticalAlign=middle;fontFamily=Helvetica;fontColor=default;fontStyle=1;" vertex="1" parent="1093">
                    <mxGeometry width="40" height="40" as="geometry">
                        <mxRectangle width="40" height="40" as="alternateBounds"/>
                    </mxGeometry>
                </mxCell>
                <mxCell id="1095" value="&lt;span style=&quot;color: rgb(0, 0, 0);&quot;&gt;distance&lt;/span&gt;" style="shape=partialRectangle;html=1;whiteSpace=wrap;connectable=0;strokeColor=inherit;overflow=hidden;fillColor=none;top=0;left=0;bottom=0;right=0;pointerEvents=1;fontSize=16;align=center;verticalAlign=middle;fontFamily=Helvetica;fontColor=default;fontStyle=1;" vertex="1" parent="1093">
                    <mxGeometry x="40" width="160" height="40" as="geometry">
                        <mxRectangle width="160" height="40" as="alternateBounds"/>
                    </mxGeometry>
                </mxCell>
                <mxCell id="1096" value="&lt;span style=&quot;color: rgb(0, 0, 0);&quot;&gt;float&lt;/span&gt;" style="shape=partialRectangle;html=1;whiteSpace=wrap;connectable=0;strokeColor=inherit;overflow=hidden;fillColor=none;top=0;left=0;bottom=0;right=0;pointerEvents=1;fontSize=16;align=center;verticalAlign=middle;fontFamily=Helvetica;fontColor=default;fontStyle=1;" vertex="1" parent="1093">
                    <mxGeometry x="200" width="80" height="40" as="geometry">
                        <mxRectangle width="80" height="40" as="alternateBounds"/>
                    </mxGeometry>
                </mxCell>
                <mxCell id="1158" value="" style="shape=tableRow;horizontal=0;startSize=0;swimlaneHead=0;swimlaneBody=0;strokeColor=inherit;top=0;left=0;bottom=0;right=0;collapsible=0;dropTarget=0;fillColor=none;points=[[0,0.5],[1,0.5]];portConstraint=eastwest;fontSize=16;align=center;verticalAlign=middle;fontFamily=Helvetica;fontColor=default;fontStyle=1;" vertex="1" parent="1068">
                    <mxGeometry y="270" width="280" height="40" as="geometry"/>
                </mxCell>
                <mxCell id="1159" value="" style="shape=partialRectangle;html=1;whiteSpace=wrap;connectable=0;strokeColor=inherit;overflow=hidden;fillColor=none;top=0;left=0;bottom=0;right=0;pointerEvents=1;fontSize=16;align=center;verticalAlign=middle;fontFamily=Helvetica;fontColor=default;fontStyle=1;" vertex="1" parent="1158">
                    <mxGeometry width="40" height="40" as="geometry">
                        <mxRectangle width="40" height="40" as="alternateBounds"/>
                    </mxGeometry>
                </mxCell>
                <mxCell id="1160" value="&lt;span style=&quot;color: rgb(0, 0, 0);&quot;&gt;duration&lt;/span&gt;" style="shape=partialRectangle;html=1;whiteSpace=wrap;connectable=0;strokeColor=inherit;overflow=hidden;fillColor=none;top=0;left=0;bottom=0;right=0;pointerEvents=1;fontSize=16;align=center;verticalAlign=middle;fontFamily=Helvetica;fontColor=default;fontStyle=1;" vertex="1" parent="1158">
                    <mxGeometry x="40" width="160" height="40" as="geometry">
                        <mxRectangle width="160" height="40" as="alternateBounds"/>
                    </mxGeometry>
                </mxCell>
                <mxCell id="1161" value="&lt;span style=&quot;color: rgb(0, 0, 0);&quot;&gt;int&lt;/span&gt;" style="shape=partialRectangle;html=1;whiteSpace=wrap;connectable=0;strokeColor=inherit;overflow=hidden;fillColor=none;top=0;left=0;bottom=0;right=0;pointerEvents=1;fontSize=16;align=center;verticalAlign=middle;fontFamily=Helvetica;fontColor=default;fontStyle=1;" vertex="1" parent="1158">
                    <mxGeometry x="200" width="80" height="40" as="geometry">
                        <mxRectangle width="80" height="40" as="alternateBounds"/>
                    </mxGeometry>
                </mxCell>
                <mxCell id="1105" style="edgeStyle=none;html=1;fontFamily=Helvetica;fontSize=12;fontColor=default;fontStyle=1;endArrow=ERone;endFill=0;startArrow=ERone;startFill=0;strokeWidth=3;" edge="1" parent="1">
                    <mxGeometry relative="1" as="geometry">
                        <mxPoint x="1400" y="200" as="sourcePoint"/>
                        <mxPoint x="1560" y="200" as="targetPoint"/>
                    </mxGeometry>
                </mxCell>
                <mxCell id="1132" value="" style="group" vertex="1" connectable="0" parent="1">
                    <mxGeometry x="1330" y="1030" width="220" height="240" as="geometry"/>
                </mxCell>
                <mxCell id="1110" value="" style="shape=callout;whiteSpace=wrap;html=1;perimeter=calloutPerimeter;strokeColor=default;align=center;verticalAlign=middle;fontFamily=Helvetica;fontSize=12;fontColor=default;fontStyle=1;fillColor=default;rotation=-180;" vertex="1" parent="1132">
                    <mxGeometry width="220" height="240" as="geometry"/>
                </mxCell>
                <mxCell id="1111" value="" style="shape=table;startSize=0;container=1;collapsible=0;childLayout=tableLayout;fontSize=16;strokeColor=default;align=center;verticalAlign=middle;fontFamily=Helvetica;fontColor=default;fontStyle=1;fillColor=default;" vertex="1" parent="1132">
                    <mxGeometry x="20" y="70" width="180" height="160" as="geometry"/>
                </mxCell>
                <mxCell id="1116" value="" style="shape=tableRow;horizontal=0;startSize=0;swimlaneHead=0;swimlaneBody=0;strokeColor=inherit;top=0;left=0;bottom=0;right=0;collapsible=0;dropTarget=0;fillColor=none;points=[[0,0.5],[1,0.5]];portConstraint=eastwest;fontSize=16;align=center;verticalAlign=middle;fontFamily=Helvetica;fontColor=default;fontStyle=1;" vertex="1" parent="1111">
                    <mxGeometry width="180" height="40" as="geometry"/>
                </mxCell>
                <mxCell id="1117" value="id" style="shape=partialRectangle;html=1;whiteSpace=wrap;connectable=0;strokeColor=inherit;overflow=hidden;fillColor=none;top=0;left=0;bottom=0;right=0;pointerEvents=1;fontSize=16;align=center;verticalAlign=middle;fontFamily=Helvetica;fontColor=default;fontStyle=1;" vertex="1" parent="1116">
                    <mxGeometry width="60" height="40" as="geometry">
                        <mxRectangle width="60" height="40" as="alternateBounds"/>
                    </mxGeometry>
                </mxCell>
                <mxCell id="1118" value="1" style="shape=partialRectangle;html=1;whiteSpace=wrap;connectable=0;strokeColor=inherit;overflow=hidden;fillColor=none;top=0;left=0;bottom=0;right=0;pointerEvents=1;fontSize=16;align=center;verticalAlign=middle;fontFamily=Helvetica;fontColor=default;fontStyle=1;" vertex="1" parent="1116">
                    <mxGeometry x="60" width="60" height="40" as="geometry">
                        <mxRectangle width="60" height="40" as="alternateBounds"/>
                    </mxGeometry>
                </mxCell>
                <mxCell id="1119" value="2" style="shape=partialRectangle;html=1;whiteSpace=wrap;connectable=0;strokeColor=inherit;overflow=hidden;fillColor=none;top=0;left=0;bottom=0;right=0;pointerEvents=1;fontSize=16;align=center;verticalAlign=middle;fontFamily=Helvetica;fontColor=default;fontStyle=1;" vertex="1" parent="1116">
                    <mxGeometry x="120" width="60" height="40" as="geometry">
                        <mxRectangle width="60" height="40" as="alternateBounds"/>
                    </mxGeometry>
                </mxCell>
                <mxCell id="1120" value="" style="shape=tableRow;horizontal=0;startSize=0;swimlaneHead=0;swimlaneBody=0;strokeColor=inherit;top=0;left=0;bottom=0;right=0;collapsible=0;dropTarget=0;fillColor=none;points=[[0,0.5],[1,0.5]];portConstraint=eastwest;fontSize=16;align=center;verticalAlign=middle;fontFamily=Helvetica;fontColor=default;fontStyle=1;" vertex="1" parent="1111">
                    <mxGeometry y="40" width="180" height="40" as="geometry"/>
                </mxCell>
                <mxCell id="1121" value="&lt;font style=&quot;font-size: 14px;&quot;&gt;route_id&lt;/font&gt;" style="shape=partialRectangle;html=1;whiteSpace=wrap;connectable=0;strokeColor=inherit;overflow=hidden;fillColor=none;top=0;left=0;bottom=0;right=0;pointerEvents=1;fontSize=16;align=center;verticalAlign=middle;fontFamily=Helvetica;fontColor=default;fontStyle=1;" vertex="1" parent="1120">
                    <mxGeometry width="60" height="40" as="geometry">
                        <mxRectangle width="60" height="40" as="alternateBounds"/>
                    </mxGeometry>
                </mxCell>
                <mxCell id="1122" value="1" style="shape=partialRectangle;html=1;whiteSpace=wrap;connectable=0;strokeColor=inherit;overflow=hidden;fillColor=none;top=0;left=0;bottom=0;right=0;pointerEvents=1;fontSize=16;align=center;verticalAlign=middle;fontFamily=Helvetica;fontColor=default;fontStyle=1;" vertex="1" parent="1120">
                    <mxGeometry x="60" width="60" height="40" as="geometry">
                        <mxRectangle width="60" height="40" as="alternateBounds"/>
                    </mxGeometry>
                </mxCell>
                <mxCell id="1123" value="1" style="shape=partialRectangle;html=1;whiteSpace=wrap;connectable=0;strokeColor=inherit;overflow=hidden;fillColor=none;top=0;left=0;bottom=0;right=0;pointerEvents=1;fontSize=16;align=center;verticalAlign=middle;fontFamily=Helvetica;fontColor=default;fontStyle=1;" vertex="1" parent="1120">
                    <mxGeometry x="120" width="60" height="40" as="geometry">
                        <mxRectangle width="60" height="40" as="alternateBounds"/>
                    </mxGeometry>
                </mxCell>
                <mxCell id="1124" value="" style="shape=tableRow;horizontal=0;startSize=0;swimlaneHead=0;swimlaneBody=0;strokeColor=inherit;top=0;left=0;bottom=0;right=0;collapsible=0;dropTarget=0;fillColor=none;points=[[0,0.5],[1,0.5]];portConstraint=eastwest;fontSize=16;align=center;verticalAlign=middle;fontFamily=Helvetica;fontColor=default;fontStyle=1;" vertex="1" parent="1111">
                    <mxGeometry y="80" width="180" height="40" as="geometry"/>
                </mxCell>
                <mxCell id="1125" value="&lt;font style=&quot;font-size: 11px;&quot;&gt;segment_id&lt;/font&gt;" style="shape=partialRectangle;html=1;whiteSpace=wrap;connectable=0;strokeColor=inherit;overflow=hidden;fillColor=none;top=0;left=0;bottom=0;right=0;pointerEvents=1;fontSize=16;align=center;verticalAlign=middle;fontFamily=Helvetica;fontColor=default;fontStyle=1;" vertex="1" parent="1124">
                    <mxGeometry width="60" height="40" as="geometry">
                        <mxRectangle width="60" height="40" as="alternateBounds"/>
                    </mxGeometry>
                </mxCell>
                <mxCell id="1126" value="1" style="shape=partialRectangle;html=1;whiteSpace=wrap;connectable=0;strokeColor=inherit;overflow=hidden;fillColor=none;top=0;left=0;bottom=0;right=0;pointerEvents=1;fontSize=16;align=center;verticalAlign=middle;fontFamily=Helvetica;fontColor=default;fontStyle=1;" vertex="1" parent="1124">
                    <mxGeometry x="60" width="60" height="40" as="geometry">
                        <mxRectangle width="60" height="40" as="alternateBounds"/>
                    </mxGeometry>
                </mxCell>
                <mxCell id="1127" value="2" style="shape=partialRectangle;html=1;whiteSpace=wrap;connectable=0;strokeColor=inherit;overflow=hidden;fillColor=none;top=0;left=0;bottom=0;right=0;pointerEvents=1;fontSize=16;align=center;verticalAlign=middle;fontFamily=Helvetica;fontColor=default;fontStyle=1;" vertex="1" parent="1124">
                    <mxGeometry x="120" width="60" height="40" as="geometry">
                        <mxRectangle width="60" height="40" as="alternateBounds"/>
                    </mxGeometry>
                </mxCell>
                <mxCell id="1128" value="" style="shape=tableRow;horizontal=0;startSize=0;swimlaneHead=0;swimlaneBody=0;strokeColor=inherit;top=0;left=0;bottom=0;right=0;collapsible=0;dropTarget=0;fillColor=none;points=[[0,0.5],[1,0.5]];portConstraint=eastwest;fontSize=16;align=center;verticalAlign=middle;fontFamily=Helvetica;fontColor=default;fontStyle=1;" vertex="1" parent="1111">
                    <mxGeometry y="120" width="180" height="40" as="geometry"/>
                </mxCell>
                <mxCell id="1129" value="&lt;span style=&quot;color: rgb(0, 0, 0);&quot;&gt;&lt;font style=&quot;font-size: 10px;&quot;&gt;order_index&lt;/font&gt;&lt;/span&gt;" style="shape=partialRectangle;html=1;whiteSpace=wrap;connectable=0;strokeColor=inherit;overflow=hidden;fillColor=none;top=0;left=0;bottom=0;right=0;pointerEvents=1;fontSize=16;align=center;verticalAlign=middle;fontFamily=Helvetica;fontColor=default;fontStyle=1;" vertex="1" parent="1128">
                    <mxGeometry width="60" height="40" as="geometry">
                        <mxRectangle width="60" height="40" as="alternateBounds"/>
                    </mxGeometry>
                </mxCell>
                <mxCell id="1130" value="1" style="shape=partialRectangle;html=1;whiteSpace=wrap;connectable=0;strokeColor=inherit;overflow=hidden;fillColor=none;top=0;left=0;bottom=0;right=0;pointerEvents=1;fontSize=16;align=center;verticalAlign=middle;fontFamily=Helvetica;fontColor=default;fontStyle=1;" vertex="1" parent="1128">
                    <mxGeometry x="60" width="60" height="40" as="geometry">
                        <mxRectangle width="60" height="40" as="alternateBounds"/>
                    </mxGeometry>
                </mxCell>
                <mxCell id="1131" value="2" style="shape=partialRectangle;html=1;whiteSpace=wrap;connectable=0;strokeColor=inherit;overflow=hidden;fillColor=none;top=0;left=0;bottom=0;right=0;pointerEvents=1;fontSize=16;align=center;verticalAlign=middle;fontFamily=Helvetica;fontColor=default;fontStyle=1;" vertex="1" parent="1128">
                    <mxGeometry x="120" width="60" height="40" as="geometry">
                        <mxRectangle width="60" height="40" as="alternateBounds"/>
                    </mxGeometry>
                </mxCell>
                <mxCell id="1133" value="例" style="text;html=1;align=center;verticalAlign=middle;whiteSpace=wrap;rounded=0;fontFamily=Helvetica;fontSize=12;fontColor=default;fontStyle=1;" vertex="1" parent="1132">
                    <mxGeometry x="10" y="40" width="60" height="30" as="geometry"/>
                </mxCell>
                <mxCell id="1156" style="edgeStyle=none;html=1;fontFamily=Helvetica;fontSize=12;fontColor=default;fontStyle=1;endArrow=ERoneToMany;endFill=0;startArrow=ERone;startFill=0;strokeWidth=3;entryX=0.437;entryY=1.123;entryDx=0;entryDy=0;entryPerimeter=0;exitX=0.5;exitY=0;exitDx=0;exitDy=0;" edge="1" parent="1" source="1068">
                    <mxGeometry relative="1" as="geometry">
                        <mxPoint x="1259.76" y="465.08" as="sourcePoint"/>
                        <mxPoint x="1260.1200000000001" y="309.99999999999983" as="targetPoint"/>
                    </mxGeometry>
                </mxCell>
            </root>
        </mxGraphModel>
    </diagram>
</mxfile>